<?xml version="1.0" encoding="UTF-8"?>
<svg version="1.1" xmlns="http://www.w3.org/2000/svg" width="720" height="720">
<path d="M0 0 C1.16781006 0.00523682 2.33562012 0.01047363 3.53881836 0.01586914 C4.79887695 0.0190918 6.05893555 0.02231445 7.35717773 0.02563477 C8.6976732 0.03399136 10.03816799 0.04245632 11.37866211 0.05102539 C12.72306153 0.05603879 14.06746271 0.06060197 15.41186523 0.06469727 C18.71334151 0.07653051 22.01473014 0.09301568 25.31616211 0.11352539 C27.67870386 4.76865344 27.58716435 8.94340872 27.54321289 14.03466797 C27.54350494 14.92297302 27.543797 15.81127808 27.5440979 16.72650146 C27.54270793 19.65378693 27.52716234 22.5808158 27.51147461 25.50805664 C27.5077433 27.54115154 27.50489688 29.57424824 27.50289917 31.60734558 C27.49527204 36.95194485 27.47563138 42.29643499 27.45349121 47.64099121 C27.43301301 53.09731571 27.42389323 58.55365789 27.41381836 64.01000977 C27.39238467 74.71122952 27.35825976 85.41236837 27.31616211 96.11352539 C28.09991211 95.12352539 28.88366211 94.13352539 29.69116211 93.11352539 C30.55741211 92.12352539 31.42366211 91.13352539 32.31616211 90.11352539 C32.97616211 90.11352539 33.63616211 90.11352539 34.31616211 90.11352539 C34.31616211 89.45352539 34.31616211 88.79352539 34.31616211 88.11352539 C34.97616211 88.11352539 35.63616211 88.11352539 36.31616211 88.11352539 C36.31616211 83.74107786 35.82538889 83.03586048 33.44116211 79.61352539 C26.90238433 69.08054137 26.82584147 54.92055754 29.44116211 43.05102539 C33.67088213 28.03849801 41.02788003 18.48931435 54.42553711 10.92211914 C58.62275051 8.71776869 62.72002157 7.26256053 67.31616211 6.11352539 C67.31616211 5.78352539 67.31616211 5.45352539 67.31616211 5.11352539 C80.89655238 2.96997069 93.64697189 1.49004512 107.32055664 3.60131836 C108.59455322 3.77945068 108.59455322 3.77945068 109.89428711 3.96118164 C110.63066406 4.08501221 111.36704102 4.20884277 112.12573242 4.33642578 C114.53849611 4.30084581 114.53849611 4.30084581 116.61523438 2.1496582 C120.06462916 -0.45071714 122.80878548 -0.41744577 126.95288086 -0.31225586 C128.03385796 -0.30732368 128.03385796 -0.30732368 129.13667297 -0.30229187 C130.65208032 -0.29190991 132.16744914 -0.27202594 133.68261719 -0.24316406 C136.00665032 -0.19891772 138.32964963 -0.18169839 140.65405273 -0.16967773 C142.12867709 -0.1562596 143.60328869 -0.14133826 145.07788086 -0.12475586 C146.12162117 -0.11367546 146.12162117 -0.11367546 147.18644714 -0.10237122 C152.07928247 -0.00491443 152.07928247 -0.00491443 154.31616211 1.11352539 C154.31616211 3.42352539 154.31616211 5.73352539 154.31616211 8.11352539 C153.65616211 8.11352539 152.99616211 8.11352539 152.31616211 8.11352539 C152.31616211 8.77352539 152.31616211 9.43352539 152.31616211 10.11352539 C151.65616211 10.11352539 150.99616211 10.11352539 150.31616211 10.11352539 C150.31616211 10.77352539 150.31616211 11.43352539 150.31616211 12.11352539 C149.65616211 12.11352539 148.99616211 12.11352539 148.31616211 12.11352539 C148.31616211 12.77352539 148.31616211 13.43352539 148.31616211 14.11352539 C147.65616211 14.11352539 146.99616211 14.11352539 146.31616211 14.11352539 C145.98616211 15.43352539 145.65616211 16.75352539 145.31616211 18.11352539 C144.32616211 18.11352539 143.33616211 18.11352539 142.31616211 18.11352539 C142.31616211 18.77352539 142.31616211 19.43352539 142.31616211 20.11352539 C141.65616211 20.11352539 140.99616211 20.11352539 140.31616211 20.11352539 C140.31616211 20.77352539 140.31616211 21.43352539 140.31616211 22.11352539 C139.65616211 22.11352539 138.99616211 22.11352539 138.31616211 22.11352539 C138.31616211 22.77352539 138.31616211 23.43352539 138.31616211 24.11352539 C137.65616211 24.11352539 136.99616211 24.11352539 136.31616211 24.11352539 C136.31616211 24.77352539 136.31616211 25.43352539 136.31616211 26.11352539 C135.65616211 26.11352539 134.99616211 26.11352539 134.31616211 26.11352539 C134.31616211 26.77352539 134.31616211 27.43352539 134.31616211 28.11352539 C133.65616211 28.11352539 132.99616211 28.11352539 132.31616211 28.11352539 C132.31616211 28.77352539 132.31616211 29.43352539 132.31616211 30.11352539 C131.65616211 30.11352539 130.99616211 30.11352539 130.31616211 30.11352539 C130.31616211 30.77352539 130.31616211 31.43352539 130.31616211 32.11352539 C129.65616211 32.11352539 128.99616211 32.11352539 128.31616211 32.11352539 C128.31616211 32.77352539 128.31616211 33.43352539 128.31616211 34.11352539 C127.65616211 34.11352539 126.99616211 34.11352539 126.31616211 34.11352539 C126.31616211 34.77352539 126.31616211 35.43352539 126.31616211 36.11352539 C125.65616211 36.11352539 124.99616211 36.11352539 124.31616211 36.11352539 C123.98616211 37.10352539 123.65616211 38.09352539 123.31616211 39.11352539 C121.83116211 39.60852539 121.83116211 39.60852539 120.31616211 40.11352539 C120.31616211 40.77352539 120.31616211 41.43352539 120.31616211 42.11352539 C119.65616211 42.11352539 118.99616211 42.11352539 118.31616211 42.11352539 C118.31616211 42.77352539 118.31616211 43.43352539 118.31616211 44.11352539 C117.65616211 44.11352539 116.99616211 44.11352539 116.31616211 44.11352539 C116.31616211 44.77352539 116.31616211 45.43352539 116.31616211 46.11352539 C115.32616211 46.11352539 114.33616211 46.11352539 113.31616211 46.11352539 C112.82116211 47.10352539 112.82116211 47.10352539 112.31616211 48.11352539 C111.65616211 48.11352539 110.99616211 48.11352539 110.31616211 48.11352539 C110.31616211 50.09352539 110.31616211 52.07352539 110.31616211 54.11352539 C109.65616211 54.11352539 108.99616211 54.11352539 108.31616211 54.11352539 C108.31616211 54.77352539 108.31616211 55.43352539 108.31616211 56.11352539 C107.65616211 56.11352539 106.99616211 56.11352539 106.31616211 56.11352539 C106.31616211 56.77352539 106.31616211 57.43352539 106.31616211 58.11352539 C105.65616211 58.11352539 104.99616211 58.11352539 104.31616211 58.11352539 C104.31616211 58.77352539 104.31616211 59.43352539 104.31616211 60.11352539 C103.65616211 60.11352539 102.99616211 60.11352539 102.31616211 60.11352539 C102.31616211 60.77352539 102.31616211 61.43352539 102.31616211 62.11352539 C101.65616211 62.11352539 100.99616211 62.11352539 100.31616211 62.11352539 C100.31616211 62.77352539 100.31616211 63.43352539 100.31616211 64.11352539 C99.65616211 64.11352539 98.99616211 64.11352539 98.31616211 64.11352539 C98.31616211 64.77352539 98.31616211 65.43352539 98.31616211 66.11352539 C97.65616211 66.11352539 96.99616211 66.11352539 96.31616211 66.11352539 C96.31616211 66.77352539 96.31616211 67.43352539 96.31616211 68.11352539 C94.99616211 68.11352539 93.67616211 68.11352539 92.31616211 68.11352539 C90.39461518 69.78668851 90.39461518 69.78668851 89.31616211 72.11352539 C89.53333563 74.32153067 89.53333563 74.32153067 90.31616211 76.11352539 C89.65616211 76.11352539 88.99616211 76.11352539 88.31616211 76.11352539 C88.31616211 76.77352539 88.31616211 77.43352539 88.31616211 78.11352539 C87.65616211 78.11352539 86.99616211 78.11352539 86.31616211 78.11352539 C86.31616211 78.77352539 86.31616211 79.43352539 86.31616211 80.11352539 C84.66616211 80.11352539 83.01616211 80.11352539 81.31616211 80.11352539 C82.18550982 82.4042895 82.18550982 82.4042895 84.99194336 83.19165039 C86.79211914 83.77172852 86.79211914 83.77172852 88.62866211 84.36352539 C89.61660767 84.6855896 89.61660767 84.6855896 90.62451172 85.01416016 C94.48837758 86.25986301 98.37080012 87.43036261 102.26928711 88.56274414 C116.69004548 92.75196061 129.8805469 97.40859475 142.31616211 106.11352539 C143.07670898 106.6355957 143.83725586 107.15766602 144.62084961 107.69555664 C145.18030273 108.16348633 145.73975586 108.63141602 146.31616211 109.11352539 C146.31616211 109.77352539 146.31616211 110.43352539 146.31616211 111.11352539 C146.93491211 111.38165039 147.55366211 111.64977539 148.19116211 111.92602539 C150.31616211 113.11352539 150.31616211 113.11352539 152.31616211 116.11352539 C153.30616211 116.77352539 154.29616211 117.43352539 155.31616211 118.11352539 C155.62553711 118.89727539 155.93491211 119.68102539 156.25366211 120.48852539 C157.45969425 123.46813422 159.03024162 124.90134427 161.31616211 127.11352539 C162.57149861 130.8795349 162.51732253 134.43343984 162.55444336 138.35961914 C162.56251511 139.16714127 162.57058685 139.97466339 162.5789032 140.80665588 C162.59272362 142.51382308 162.6034549 144.22101767 162.61132812 145.92822266 C162.62857633 148.53804628 162.67248267 151.14661414 162.71655273 153.75610352 C162.72667717 155.41559942 162.73519405 157.07510608 162.74194336 158.73461914 C162.76820549 159.90352943 162.76820549 159.90352943 162.79499817 161.09605408 C162.78069867 164.66795163 162.6952718 166.64931731 160.39648438 169.46411133 C159.70997803 170.00841797 159.02347168 170.55272461 158.31616211 171.11352539 C157.13865985 173.01957357 156.01611822 174.96031926 154.94116211 176.92602539 C152.82602899 180.68473598 150.75820956 183.95937684 147.81616211 187.11352539 C145.06280329 189.71531339 145.06280329 189.71531339 145.44897461 192.07055664 C146.49445244 194.5335517 147.77611829 195.93850387 149.69116211 197.80102539 C150.59995117 198.70401367 150.59995117 198.70401367 151.52709961 199.62524414 C153.35338211 201.32793131 153.35338211 201.32793131 156.31616211 202.11352539 C156.64616211 204.09352539 156.97616211 206.07352539 157.31616211 208.11352539 C151.51375643 208.13819871 145.71138113 208.15637263 139.90893555 208.16845703 C137.93399524 208.17349349 135.95905868 208.1803229 133.98413086 208.18896484 C131.14948606 208.20106047 128.31489045 208.20676049 125.48022461 208.21118164 C124.59372223 208.21634293 123.70721985 208.22150421 122.79385376 208.2268219 C116.54390552 208.2273971 116.54390552 208.2273971 114.31616211 207.11352539 C114.31616211 206.12352539 114.31616211 205.13352539 114.31616211 204.11352539 C113.71674805 203.8621582 113.11733398 203.61079102 112.49975586 203.35180664 C110.02254058 201.9470173 108.98655923 200.63047191 107.37866211 198.30102539 C104.93739109 194.89915399 102.32006956 192.04233516 99.31616211 189.11352539 C97.7692894 187.31538402 96.25027296 185.49807673 94.74584961 183.66430664 C93.20134403 181.86670765 93.20134403 181.86670765 90.31616211 180.11352539 C89.35067132 178.99117615 88.41467642 177.84302719 87.50366211 176.67602539 C85.32000693 174.02834348 84.1941492 173.05367 81.00366211 171.48852539 C80.11678711 171.03477539 79.22991211 170.58102539 78.31616211 170.11352539 C77.95173978 168.45337924 77.61643328 166.78646475 77.31616211 165.11352539 C76.51178711 164.80415039 75.70741211 164.49477539 74.87866211 164.17602539 C72.31616211 163.11352539 72.31616211 163.11352539 71.00366211 159.98852539 C70.77678711 159.03977539 70.54991211 158.09102539 70.31616211 157.11352539 C69.65616211 157.11352539 68.99616211 157.11352539 68.31616211 157.11352539 C66.96229275 155.46349711 65.62938068 153.79608669 64.31616211 152.11352539 C63.65616211 151.78352539 62.99616211 151.45352539 62.31616211 151.11352539 C62.31616211 150.45352539 62.31616211 149.79352539 62.31616211 149.11352539 C61.65616211 149.11352539 60.99616211 149.11352539 60.31616211 149.11352539 C60.31616211 148.45352539 60.31616211 147.79352539 60.31616211 147.11352539 C59.32616211 147.11352539 58.33616211 147.11352539 57.31616211 147.11352539 C55.47089249 144.48756478 54.33240362 142.16224993 53.31616211 139.11352539 C52.65616211 139.11352539 51.99616211 139.11352539 51.31616211 139.11352539 C49.76538086 137.46899414 49.76538086 137.46899414 48.00366211 135.30102539 C45.33281058 132.14051775 42.9758105 130.10019166 39.31616211 128.11352539 C37.56988733 125.49411322 36.92893823 124.07527662 36.31616211 121.11352539 C35.65616211 121.11352539 34.99616211 121.11352539 34.31616211 121.11352539 C34.31616211 120.45352539 34.31616211 119.79352539 34.31616211 119.11352539 C33.53241211 118.86602539 32.74866211 118.61852539 31.94116211 118.36352539 C29.31616211 117.11352539 29.31616211 117.11352539 27.31616211 113.11352539 C26.98616211 144.13352539 26.65616211 175.15352539 26.31616211 207.11352539 C26.97616211 207.44352539 27.63616211 207.77352539 28.31616211 208.11352539 C26.99616211 208.11352539 25.67616211 208.11352539 24.31616211 208.11352539 C23.98616211 208.77352539 23.65616211 209.43352539 23.31616211 210.11352539 C23.31616211 209.45352539 23.31616211 208.79352539 23.31616211 208.11352539 C22.74704102 208.27723633 22.17791992 208.44094727 21.59155273 208.60961914 C19.27024231 209.12369475 17.28278893 209.21275091 14.90991211 209.17602539 C14.08362305 209.16829102 13.25733398 209.16055664 12.40600586 209.15258789 C10.67944336 209.12654622 8.95288086 209.10050456 7.22631836 209.07446289 C6.4000293 209.06672852 5.57374023 209.05899414 4.72241211 209.05102539 C3.97282227 209.03942383 3.22323242 209.02782227 2.45092773 209.01586914 C0.27639443 209.11534459 -1.58594077 209.55842162 -3.68383789 210.11352539 C-3.70716343 182.88058211 -3.72481536 155.64764031 -3.73565006 128.41468906 C-3.74081376 115.77092213 -3.74785784 103.12716139 -3.75927734 90.48339844 C-3.76922195 79.46743276 -3.77569078 68.45147156 -3.77792639 57.43550152 C-3.77923387 51.59872981 -3.78232212 45.76197093 -3.78956795 39.92520332 C-3.79632464 34.43830899 -3.79845557 28.95143286 -3.79694557 23.46453476 C-3.79722206 21.44441949 -3.79922925 19.42430366 -3.80304337 17.40419197 C-3.80797514 14.65884788 -3.8068381 11.91357365 -3.80409241 9.16822815 C-3.80700525 8.3579328 -3.80991809 7.54763744 -3.8129192 6.71278769 C-3.79504866 0.16052921 -3.79504866 0.16052921 0 0 Z M85.31616211 28.11352539 C85.31616211 28.77352539 85.31616211 29.43352539 85.31616211 30.11352539 C83.00616211 29.78352539 80.69616211 29.45352539 78.31616211 29.11352539 C78.64616211 29.77352539 78.97616211 30.43352539 79.31616211 31.11352539 C77.66616211 31.11352539 76.01616211 31.11352539 74.31616211 31.11352539 C73.98616211 32.10352539 73.65616211 33.09352539 73.31616211 34.11352539 C72.32616211 33.78352539 71.33616211 33.45352539 70.31616211 33.11352539 C70.31616211 34.10352539 70.31616211 35.09352539 70.31616211 36.11352539 C69.65616211 36.11352539 68.99616211 36.11352539 68.31616211 36.11352539 C68.31616211 36.77352539 68.31616211 37.43352539 68.31616211 38.11352539 C67.65616211 38.11352539 66.99616211 38.11352539 66.31616211 38.11352539 C66.31616211 38.77352539 66.31616211 39.43352539 66.31616211 40.11352539 C64.66616211 40.11352539 63.01616211 40.11352539 61.31616211 40.11352539 C56.81251642 47.81330673 55.23945094 55.31524526 57.31616211 64.11352539 C60.68924972 62.98916286 61.46739308 62.04009806 63.69116211 59.36352539 C65.78708045 56.87601297 67.87395076 54.51802144 70.25366211 52.30102539 C72.65916854 50.25081458 72.65916854 50.25081458 72.31616211 47.11352539 C73.30616211 47.11352539 74.29616211 47.11352539 75.31616211 47.11352539 C75.31616211 46.45352539 75.31616211 45.79352539 75.31616211 45.11352539 C75.95553711 44.84540039 76.59491211 44.57727539 77.25366211 44.30102539 C79.64747897 43.22684787 79.64747897 43.22684787 80.31616211 40.11352539 C82.31616211 38.11352539 82.31616211 38.11352539 84.75366211 36.17602539 C87.69780614 33.81026786 87.69780614 33.81026786 90.31616211 31.11352539 C90.31616211 30.45352539 90.31616211 29.79352539 90.31616211 29.11352539 C91.30616211 28.78352539 92.29616211 28.45352539 93.31616211 28.11352539 C90.45439154 26.68264011 88.38240438 27.51360842 85.31616211 28.11352539 Z M59.31616211 102.11352539 C59.64616211 103.10352539 59.97616211 104.09352539 60.31616211 105.11352539 C60.95553711 105.42290039 61.59491211 105.73227539 62.25366211 106.05102539 C64.77085126 107.3477592 65.28503159 108.53569909 66.31616211 111.11352539 C67.30616211 111.11352539 68.29616211 111.11352539 69.31616211 111.11352539 C69.37803711 111.67040039 69.43991211 112.22727539 69.50366211 112.80102539 C70.66091081 116.09473322 72.79935139 117.70857293 75.31616211 120.11352539 C76.83096846 121.97790243 78.32358041 123.85446496 79.78881836 125.75805664 C81.47444062 127.55603871 81.47444062 127.55603871 85.31616211 127.11352539 C85.64616211 128.76352539 85.97616211 130.41352539 86.31616211 132.11352539 C86.97616211 132.11352539 87.63616211 132.11352539 88.31616211 132.11352539 C88.54303711 132.67040039 88.76991211 133.22727539 89.00366211 133.80102539 C91.10717122 137.50720811 94.05215323 140.21066191 97.50366211 142.67602539 C99.55841715 144.3056587 100.16074486 145.8026909 101.31616211 148.11352539 C102.30616211 148.44352539 103.29616211 148.77352539 104.31616211 149.11352539 C106.34175092 145.76412658 106.53355198 143.24389988 106.44116211 139.36352539 C106.42311523 138.37868164 106.40506836 137.39383789 106.38647461 136.37915039 C106.36327148 135.63149414 106.34006836 134.88383789 106.31616211 134.11352539 C109.39659168 133.45228135 112.36379865 133.01358868 115.50366211 132.80102539 C119.27093915 132.52576123 119.27093915 132.52576123 120.87866211 130.36352539 C121.43146478 127.52054025 121.2355709 125.86911204 120.31616211 123.11352539 C112.78925832 117.5505217 102.8633563 115.15242216 94.00366211 112.55102539 C92.71748247 112.16489371 91.43167694 111.77751379 90.14624023 111.38891602 C87.65067706 110.6345028 85.15444666 109.88229228 82.6574707 109.13256836 C77.4188929 107.53489017 72.24101465 105.7798205 67.06616211 103.98852539 C64.49158671 103.16934231 61.97454817 102.58265234 59.31616211 102.11352539 Z M121.31616211 128.11352539 C121.31616211 129.10352539 121.31616211 130.09352539 121.31616211 131.11352539 C122.30616211 131.44352539 123.29616211 131.77352539 124.31616211 132.11352539 C124.97616211 131.78352539 125.63616211 131.45352539 126.31616211 131.11352539 C126.64616211 132.10352539 126.97616211 133.09352539 127.31616211 134.11352539 C128.30616211 133.78352539 129.29616211 133.45352539 130.31616211 133.11352539 C128.65246959 130.51211583 128.65246959 130.51211583 126.31616211 128.11352539 C123.6468809 127.69481986 123.6468809 127.69481986 121.31616211 128.11352539 Z M131.31616211 136.11352539 C131.31616211 137.10352539 131.31616211 138.09352539 131.31616211 139.11352539 C130.32616211 139.11352539 129.33616211 139.11352539 128.31616211 139.11352539 C128.31616211 140.43352539 128.31616211 141.75352539 128.31616211 143.11352539 C128.97616211 143.44352539 129.63616211 143.77352539 130.31616211 144.11352539 C129.49829363 151.92500397 129.49829363 151.92500397 126.87084961 154.56665039 C122.84800788 156.98396336 118.9511017 157.73516298 114.31616211 158.11352539 C115.96616211 161.08352539 117.61616211 164.05352539 119.31616211 167.11352539 C121.29616211 166.78352539 123.27616211 166.45352539 125.31616211 166.11352539 C124.98616211 167.10352539 124.65616211 168.09352539 124.31616211 169.11352539 C125.30616211 169.11352539 126.29616211 169.11352539 127.31616211 169.11352539 C133.1047592 161.57080797 134.26114573 154.45530668 134.31616211 145.11352539 C133.88895009 141.96769141 133.19812471 139.17445442 132.31616211 136.11352539 C131.98616211 136.11352539 131.65616211 136.11352539 131.31616211 136.11352539 Z M79.31616211 168.11352539 C79.97616211 168.77352539 80.63616211 169.43352539 81.31616211 170.11352539 C81.31616211 169.45352539 81.31616211 168.79352539 81.31616211 168.11352539 C80.65616211 168.11352539 79.99616211 168.11352539 79.31616211 168.11352539 Z " fill="#E76357" transform="translate(280.683837890625,250.886474609375)"/>
<path d="M0 0 C1.16781006 0.00523682 2.33562012 0.01047363 3.53881836 0.01586914 C4.79887695 0.0190918 6.05893555 0.02231445 7.35717773 0.02563477 C8.6976732 0.03399136 10.03816799 0.04245632 11.37866211 0.05102539 C12.72306153 0.05603879 14.06746271 0.06060197 15.41186523 0.06469727 C18.71334151 0.07653051 22.01473014 0.09301568 25.31616211 0.11352539 C27.67870386 4.76865344 27.58716435 8.94340872 27.54321289 14.03466797 C27.54350494 14.92297302 27.543797 15.81127808 27.5440979 16.72650146 C27.54270793 19.65378693 27.52716234 22.5808158 27.51147461 25.50805664 C27.5077433 27.54115154 27.50489688 29.57424824 27.50289917 31.60734558 C27.49527204 36.95194485 27.47563138 42.29643499 27.45349121 47.64099121 C27.43301301 53.09731571 27.42389323 58.55365789 27.41381836 64.01000977 C27.39238467 74.71122952 27.35825976 85.41236837 27.31616211 96.11352539 C28.09991211 95.12352539 28.88366211 94.13352539 29.69116211 93.11352539 C30.55741211 92.12352539 31.42366211 91.13352539 32.31616211 90.11352539 C32.97616211 90.11352539 33.63616211 90.11352539 34.31616211 90.11352539 C34.31616211 89.45352539 34.31616211 88.79352539 34.31616211 88.11352539 C36.79116211 87.61852539 36.79116211 87.61852539 39.31616211 87.11352539 C39.31616211 86.45352539 39.31616211 85.79352539 39.31616211 85.11352539 C43.96190381 86.38054585 46.27199583 88.99155395 49.47241211 92.36743164 C52.14416744 94.89767451 55.08875987 96.37072818 58.31616211 98.11352539 C58.64616211 98.77352539 58.97616211 99.43352539 59.31616211 100.11352539 C60.30616211 100.77352539 61.29616211 101.43352539 62.31616211 102.11352539 C61.98616211 102.77352539 61.65616211 103.43352539 61.31616211 104.11352539 C62.27522461 104.48477539 62.27522461 104.48477539 63.25366211 104.86352539 C65.31616211 106.11352539 65.31616211 106.11352539 65.87866211 108.17602539 C66.09522461 109.13508789 66.09522461 109.13508789 66.31616211 110.11352539 C67.80116211 110.60852539 67.80116211 110.60852539 69.31616211 111.11352539 C70.32804106 112.77300687 71.3288167 114.43933101 72.31616211 116.11352539 C72.97616211 116.11352539 73.63616211 116.11352539 74.31616211 116.11352539 C75.35051767 117.75909105 76.34379724 119.43058619 77.31616211 121.11352539 C79.81014619 124.81826515 79.81014619 124.81826515 83.56616211 126.92602539 C84.43241211 127.01883789 84.43241211 127.01883789 85.31616211 127.11352539 C85.37803711 127.67040039 85.43991211 128.22727539 85.50366211 128.80102539 C86.67158802 132.12512223 88.70198818 133.80332517 91.31616211 136.11352539 C92.01741211 136.44352539 92.71866211 136.77352539 93.44116211 137.11352539 C96.06000536 138.51024179 96.83254858 140.59783288 98.31616211 143.11352539 C99.30616211 143.44352539 100.29616211 143.77352539 101.31616211 144.11352539 C101.59717773 144.99782227 101.87819336 145.88211914 102.16772461 146.79321289 C103.55042282 150.79080977 105.80375715 153.26753766 108.69116211 156.23852539 C109.17327148 156.7502832 109.65538086 157.26204102 110.15209961 157.78930664 C111.52728323 159.24296541 112.92132128 160.67871778 114.31616211 162.11352539 C115.01483398 162.88954102 115.71350586 163.66555664 116.43334961 164.46508789 C118.3712918 166.4983992 118.3712918 166.4983992 122.06616211 166.36352539 C123.13866211 166.28102539 124.21116211 166.19852539 125.31616211 166.11352539 C125.64616211 167.10352539 125.97616211 168.09352539 126.31616211 169.11352539 C128.29616211 166.14352539 128.29616211 166.14352539 130.31616211 163.11352539 C130.64616211 164.10352539 130.97616211 165.09352539 131.31616211 166.11352539 C129.70021379 168.15472327 128.03052391 170.15425476 126.31616211 172.11352539 C125.98616211 173.10352539 125.65616211 174.09352539 125.31616211 175.11352539 C126.30616211 175.44352539 127.29616211 175.77352539 128.31616211 176.11352539 C128.31616211 176.77352539 128.31616211 177.43352539 128.31616211 178.11352539 C128.91428711 178.38165039 129.51241211 178.64977539 130.12866211 178.92602539 C133.28611107 180.64006911 134.89039209 182.37810444 136.69116211 185.48852539 C138.57176634 188.52642453 140.7548711 190.61671443 143.31616211 193.11352539 C145.42434758 195.17196413 147.52740735 197.23551494 149.62866211 199.30102539 C150.17844727 199.83405273 150.72823242 200.36708008 151.29467773 200.91625977 C152.67331889 202.27777495 153.99955938 203.69193041 155.31616211 205.11352539 C155.31616211 205.77352539 155.31616211 206.43352539 155.31616211 207.11352539 C150.26712875 207.43841369 145.22433077 207.67226182 140.16723633 207.82763672 C138.45359258 207.8924573 136.74065209 207.98076807 135.02954102 208.09423828 C120.05568378 209.06128166 120.05568378 209.06128166 114.60229492 204.32666016 C111.97001044 201.64346459 109.70654353 198.74770341 107.51544189 195.6988678 C105.75500618 193.3717266 103.69270152 191.41542257 101.56616211 189.42602539 C99.64428711 187.60180664 99.64428711 187.60180664 98.31616211 186.11352539 C98.31616211 185.45352539 98.31616211 184.79352539 98.31616211 184.11352539 C96.99616211 184.11352539 95.67616211 184.11352539 94.31616211 184.11352539 C93.98616211 183.45352539 93.65616211 182.79352539 93.31616211 182.11352539 C91.83116211 181.12352539 91.83116211 181.12352539 90.31616211 180.11352539 C89.35067132 178.99117615 88.41467642 177.84302719 87.50366211 176.67602539 C85.32000693 174.02834348 84.1941492 173.05367 81.00366211 171.48852539 C80.11678711 171.03477539 79.22991211 170.58102539 78.31616211 170.11352539 C77.95173978 168.45337924 77.61643328 166.78646475 77.31616211 165.11352539 C76.51178711 164.80415039 75.70741211 164.49477539 74.87866211 164.17602539 C72.31616211 163.11352539 72.31616211 163.11352539 71.00366211 159.98852539 C70.77678711 159.03977539 70.54991211 158.09102539 70.31616211 157.11352539 C69.65616211 157.11352539 68.99616211 157.11352539 68.31616211 157.11352539 C66.96229275 155.46349711 65.62938068 153.79608669 64.31616211 152.11352539 C63.65616211 151.78352539 62.99616211 151.45352539 62.31616211 151.11352539 C62.31616211 150.45352539 62.31616211 149.79352539 62.31616211 149.11352539 C61.65616211 149.11352539 60.99616211 149.11352539 60.31616211 149.11352539 C60.31616211 148.45352539 60.31616211 147.79352539 60.31616211 147.11352539 C59.32616211 147.11352539 58.33616211 147.11352539 57.31616211 147.11352539 C55.47089249 144.48756478 54.33240362 142.16224993 53.31616211 139.11352539 C52.65616211 139.11352539 51.99616211 139.11352539 51.31616211 139.11352539 C49.76538086 137.46899414 49.76538086 137.46899414 48.00366211 135.30102539 C45.33281058 132.14051775 42.9758105 130.10019166 39.31616211 128.11352539 C37.56988733 125.49411322 36.92893823 124.07527662 36.31616211 121.11352539 C35.65616211 121.11352539 34.99616211 121.11352539 34.31616211 121.11352539 C34.31616211 120.45352539 34.31616211 119.79352539 34.31616211 119.11352539 C33.53241211 118.86602539 32.74866211 118.61852539 31.94116211 118.36352539 C29.31616211 117.11352539 29.31616211 117.11352539 27.31616211 113.11352539 C26.98616211 144.13352539 26.65616211 175.15352539 26.31616211 207.11352539 C26.97616211 207.44352539 27.63616211 207.77352539 28.31616211 208.11352539 C26.99616211 208.11352539 25.67616211 208.11352539 24.31616211 208.11352539 C23.98616211 208.77352539 23.65616211 209.43352539 23.31616211 210.11352539 C23.31616211 209.45352539 23.31616211 208.79352539 23.31616211 208.11352539 C22.74704102 208.27723633 22.17791992 208.44094727 21.59155273 208.60961914 C19.27024231 209.12369475 17.28278893 209.21275091 14.90991211 209.17602539 C14.08362305 209.16829102 13.25733398 209.16055664 12.40600586 209.15258789 C10.67944336 209.12654622 8.95288086 209.10050456 7.22631836 209.07446289 C6.4000293 209.06672852 5.57374023 209.05899414 4.72241211 209.05102539 C3.97282227 209.03942383 3.22323242 209.02782227 2.45092773 209.01586914 C0.27639443 209.11534459 -1.58594077 209.55842162 -3.68383789 210.11352539 C-3.70716343 182.88058211 -3.72481536 155.64764031 -3.73565006 128.41468906 C-3.74081376 115.77092213 -3.74785784 103.12716139 -3.75927734 90.48339844 C-3.76922195 79.46743276 -3.77569078 68.45147156 -3.77792639 57.43550152 C-3.77923387 51.59872981 -3.78232212 45.76197093 -3.78956795 39.92520332 C-3.79632464 34.43830899 -3.79845557 28.95143286 -3.79694557 23.46453476 C-3.79722206 21.44441949 -3.79922925 19.42430366 -3.80304337 17.40419197 C-3.80797514 14.65884788 -3.8068381 11.91357365 -3.80409241 9.16822815 C-3.80700525 8.3579328 -3.80991809 7.54763744 -3.8129192 6.71278769 C-3.79504866 0.16052921 -3.79504866 0.16052921 0 0 Z M79.31616211 168.11352539 C79.97616211 168.77352539 80.63616211 169.43352539 81.31616211 170.11352539 C81.31616211 169.45352539 81.31616211 168.79352539 81.31616211 168.11352539 C80.65616211 168.11352539 79.99616211 168.11352539 79.31616211 168.11352539 Z " fill="#2791CE" transform="translate(280.683837890625,250.886474609375)"/>
<path d="M0 0 C8.58 0 17.16 0 26 0 C26 32.34 26 64.68 26 98 C27.485 98.495 27.485 98.495 29 99 C28.01 99.99 28.01 99.99 27 101 C26.30062468 102.31647119 25.63270867 103.65022151 25 105 C24.67 105.66 24.34 106.32 24 107 C24.66 107 25.32 107 26 107 C26 138.68 26 170.36 26 203 C17.42 203 8.84 203 0 203 C0 136.01 0 69.02 0 0 Z " fill="#2598D9" transform="translate(279,254)"/>
<path d="M0 0 C1.11639359 0.00493217 1.11639359 0.00493217 2.25534058 0.00996399 C3.82379948 0.02036333 5.39222053 0.04027708 6.96044922 0.0690918 C9.36577402 0.1132553 11.77010075 0.13054235 14.17578125 0.14257812 C15.70053529 0.15599916 17.22527702 0.1709213 18.75 0.1875 C19.47083771 0.19488693 20.19167542 0.20227386 20.93435669 0.20988464 C26.00537154 0.30737327 26.00537154 0.30737327 28.2421875 1.42578125 C28.2421875 3.73578125 28.2421875 6.04578125 28.2421875 8.42578125 C27.5821875 8.42578125 26.9221875 8.42578125 26.2421875 8.42578125 C26.2421875 9.08578125 26.2421875 9.74578125 26.2421875 10.42578125 C25.5821875 10.42578125 24.9221875 10.42578125 24.2421875 10.42578125 C24.2421875 11.08578125 24.2421875 11.74578125 24.2421875 12.42578125 C23.5821875 12.42578125 22.9221875 12.42578125 22.2421875 12.42578125 C22.2421875 13.08578125 22.2421875 13.74578125 22.2421875 14.42578125 C21.5821875 14.42578125 20.9221875 14.42578125 20.2421875 14.42578125 C19.9121875 15.74578125 19.5821875 17.06578125 19.2421875 18.42578125 C18.2521875 18.42578125 17.2621875 18.42578125 16.2421875 18.42578125 C16.2421875 19.08578125 16.2421875 19.74578125 16.2421875 20.42578125 C15.5821875 20.42578125 14.9221875 20.42578125 14.2421875 20.42578125 C14.2421875 21.08578125 14.2421875 21.74578125 14.2421875 22.42578125 C13.5821875 22.42578125 12.9221875 22.42578125 12.2421875 22.42578125 C12.2421875 23.08578125 12.2421875 23.74578125 12.2421875 24.42578125 C11.5821875 24.42578125 10.9221875 24.42578125 10.2421875 24.42578125 C10.2421875 25.08578125 10.2421875 25.74578125 10.2421875 26.42578125 C9.5821875 26.42578125 8.9221875 26.42578125 8.2421875 26.42578125 C8.2421875 27.08578125 8.2421875 27.74578125 8.2421875 28.42578125 C7.5821875 28.42578125 6.9221875 28.42578125 6.2421875 28.42578125 C6.2421875 29.08578125 6.2421875 29.74578125 6.2421875 30.42578125 C5.5821875 30.42578125 4.9221875 30.42578125 4.2421875 30.42578125 C4.2421875 31.08578125 4.2421875 31.74578125 4.2421875 32.42578125 C3.5821875 32.42578125 2.9221875 32.42578125 2.2421875 32.42578125 C2.2421875 33.08578125 2.2421875 33.74578125 2.2421875 34.42578125 C1.5821875 34.42578125 0.9221875 34.42578125 0.2421875 34.42578125 C0.2421875 35.08578125 0.2421875 35.74578125 0.2421875 36.42578125 C-0.4178125 36.42578125 -1.0778125 36.42578125 -1.7578125 36.42578125 C-2.0878125 37.41578125 -2.4178125 38.40578125 -2.7578125 39.42578125 C-4.2428125 39.92078125 -4.2428125 39.92078125 -5.7578125 40.42578125 C-5.7578125 41.08578125 -5.7578125 41.74578125 -5.7578125 42.42578125 C-6.4178125 42.42578125 -7.0778125 42.42578125 -7.7578125 42.42578125 C-7.7578125 43.08578125 -7.7578125 43.74578125 -7.7578125 44.42578125 C-8.4178125 44.42578125 -9.0778125 44.42578125 -9.7578125 44.42578125 C-9.7578125 45.08578125 -9.7578125 45.74578125 -9.7578125 46.42578125 C-10.7478125 46.42578125 -11.7378125 46.42578125 -12.7578125 46.42578125 C-13.2528125 47.41578125 -13.2528125 47.41578125 -13.7578125 48.42578125 C-14.4178125 48.42578125 -15.0778125 48.42578125 -15.7578125 48.42578125 C-15.7578125 50.40578125 -15.7578125 52.38578125 -15.7578125 54.42578125 C-16.4178125 54.42578125 -17.0778125 54.42578125 -17.7578125 54.42578125 C-17.7578125 55.08578125 -17.7578125 55.74578125 -17.7578125 56.42578125 C-18.4178125 56.42578125 -19.0778125 56.42578125 -19.7578125 56.42578125 C-19.7578125 57.08578125 -19.7578125 57.74578125 -19.7578125 58.42578125 C-20.4178125 58.42578125 -21.0778125 58.42578125 -21.7578125 58.42578125 C-21.7578125 59.08578125 -21.7578125 59.74578125 -21.7578125 60.42578125 C-22.4178125 60.42578125 -23.0778125 60.42578125 -23.7578125 60.42578125 C-23.7578125 61.08578125 -23.7578125 61.74578125 -23.7578125 62.42578125 C-24.4178125 62.42578125 -25.0778125 62.42578125 -25.7578125 62.42578125 C-25.7578125 63.08578125 -25.7578125 63.74578125 -25.7578125 64.42578125 C-26.4178125 64.42578125 -27.0778125 64.42578125 -27.7578125 64.42578125 C-27.7578125 65.08578125 -27.7578125 65.74578125 -27.7578125 66.42578125 C-28.4178125 66.42578125 -29.0778125 66.42578125 -29.7578125 66.42578125 C-29.7578125 67.08578125 -29.7578125 67.74578125 -29.7578125 68.42578125 C-31.0778125 68.42578125 -32.3978125 68.42578125 -33.7578125 68.42578125 C-35.67935943 70.09894437 -35.67935943 70.09894437 -36.7578125 72.42578125 C-36.54063898 74.63378653 -36.54063898 74.63378653 -35.7578125 76.42578125 C-36.4178125 76.42578125 -37.0778125 76.42578125 -37.7578125 76.42578125 C-37.7578125 77.08578125 -37.7578125 77.74578125 -37.7578125 78.42578125 C-38.4178125 78.42578125 -39.0778125 78.42578125 -39.7578125 78.42578125 C-39.7578125 79.08578125 -39.7578125 79.74578125 -39.7578125 80.42578125 C-41.4078125 80.42578125 -43.0578125 80.42578125 -44.7578125 80.42578125 C-43.4525735 83.03625926 -42.39954676 83.10644548 -39.6953125 84.05078125 C-38.96183594 84.31117188 -38.22835937 84.5715625 -37.47265625 84.83984375 C-36.90675781 85.03320312 -36.34085937 85.2265625 -35.7578125 85.42578125 C-39.31024132 86.60992419 -40.45611812 86.12113657 -43.9453125 84.98828125 C-45.29689453 84.55708984 -45.29689453 84.55708984 -46.67578125 84.1171875 C-47.36285156 83.88902344 -48.04992187 83.66085937 -48.7578125 83.42578125 C-48.7578125 82.76578125 -48.7578125 82.10578125 -48.7578125 81.42578125 C-49.7065625 81.34328125 -50.6553125 81.26078125 -51.6328125 81.17578125 C-53.1796875 80.80453125 -53.1796875 80.80453125 -54.7578125 80.42578125 C-55.8828125 78.42578125 -55.8828125 78.42578125 -56.7578125 76.42578125 C-58.08269363 76.0602968 -59.41799764 75.73202465 -60.7578125 75.42578125 C-64.3743736 73.23902338 -65.56323217 72.09465113 -66.7578125 67.98828125 C-66.7578125 63.01121219 -64.90361415 60.63590861 -61.53125 57.07421875 C-60.73976563 56.32398438 -59.94828125 55.57375 -59.1328125 54.80078125 C-55.68819376 51.60940736 -55.68819376 51.60940736 -53.7578125 47.42578125 C-52.7678125 47.42578125 -51.7778125 47.42578125 -50.7578125 47.42578125 C-50.7578125 46.76578125 -50.7578125 46.10578125 -50.7578125 45.42578125 C-49.7578125 44.42578125 -48.7578125 43.42578125 -47.7578125 42.42578125 C-47.4278125 41.43578125 -47.0978125 40.44578125 -46.7578125 39.42578125 C-45.7678125 38.93078125 -45.7678125 38.93078125 -44.7578125 38.42578125 C-44.0978125 37.76578125 -43.4378125 37.10578125 -42.7578125 36.42578125 C-35.8845059 30.84216794 -35.8845059 30.84216794 -31.8828125 29.36328125 C-29.52999128 28.62415421 -29.52999128 28.62415421 -28.8828125 26.17578125 C-27.69860207 23.28104464 -26.99830524 22.61895453 -24.6328125 20.73828125 C-19.90438895 16.94558784 -16.41046667 12.22641245 -12.7578125 7.42578125 C-17.87148208 5.72122472 -23.3271334 6.23986408 -28.67944336 6.24047852 C-30.78846084 6.23831394 -32.89693593 6.22021128 -35.00585938 6.20117188 C-46.08758865 6.15352422 -55.1581824 7.54420525 -65.41015625 11.71875 C-67.7578125 12.42578125 -67.7578125 12.42578125 -70.7578125 11.42578125 C-66.90304001 8.85593292 -63.23740668 7.56763859 -58.7578125 6.42578125 C-58.7578125 6.09578125 -58.7578125 5.76578125 -58.7578125 5.42578125 C-45.14328699 3.27683858 -32.37438292 1.81618915 -18.66552734 3.91357422 C-17.81297363 4.0323291 -16.96041992 4.15108398 -16.08203125 4.2734375 C-15.34041748 4.39726807 -14.59880371 4.52109863 -13.8347168 4.64868164 C-11.55217069 4.63617453 -11.55217069 4.63617453 -9.97241211 2.46191406 C-6.86323435 -0.396706 -4.00777408 -0.09789273 0 0 Z " fill="#2595D5" transform="translate(406.7578125,250.57421875)"/>
<path d="M0 0 C4.71745462 0.65723052 9.11295661 1.89556986 13.625 3.375 C19.58523759 5.28835016 25.55038792 6.97609203 31.64453125 8.421875 C34 9 34 9 37 10 C38.32 10 39.64 10 41 10 C41 10.66 41 11.32 41 12 C42.62414378 12.19477739 44.24936423 12.38059458 45.875 12.5625 C46.77992188 12.66691406 47.68484375 12.77132813 48.6171875 12.87890625 C51.01653057 13.19674852 51.01653057 13.19674852 53 12 C53 13.65 53 15.3 53 17 C53.763125 16.938125 54.52625 16.87625 55.3125 16.8125 C58 17 58 17 59.8125 18.3125 C61 20 61 20 61 23 C61.556875 23.185625 62.11375 23.37125 62.6875 23.5625 C66.07202526 25.66639408 68.22659717 28.43790639 70 32 C69.8125 34.9375 69.8125 34.9375 69 37 C68.01 37 67.02 37 66 37 C66 38.32 66 39.64 66 41 C67.485 41.495 67.485 41.495 69 42 C67.85644143 49.98784195 67.85644143 49.98784195 64.9375 53.4375 C61.08292883 55.48780381 57.28347709 56.29075325 53 57 C53.680625 57.763125 54.36125 58.52625 55.0625 59.3125 C55.701875 60.199375 56.34125 61.08625 57 62 C56.67 62.99 56.34 63.98 56 65 C53.9102307 62.96458886 51.82825997 60.92210832 49.75 58.875 C49.16347656 58.30523437 48.57695312 57.73546875 47.97265625 57.1484375 C44.44519164 53.66060733 41.59693092 50.22965482 39 46 C40.98 45.505 40.98 45.505 43 45 C42.98839844 44.39671875 42.97679687 43.7934375 42.96484375 43.171875 C42.95582031 42.37265625 42.94679688 41.5734375 42.9375 40.75 C42.92589844 39.96109375 42.91429687 39.1721875 42.90234375 38.359375 C42.99964628 36.00854584 43.11508192 34.18405314 44 32 C45.70703125 30.953125 45.70703125 30.953125 47.8125 30.25 C48.49957031 30.00765625 49.18664062 29.7653125 49.89453125 29.515625 C52 29 52 29 56 29 C58.1519437 25.77208445 58.20086443 24.71599191 58 21 C57.195625 20.7525 56.39125 20.505 55.5625 20.25 C52 19 52 19 48.41015625 17.26953125 C40.853084 13.88227618 32.79964376 11.78551334 24.875 9.4375 C22.43874845 8.71348994 20.00310071 7.98765569 17.56887817 7.2568512 C16.06414242 6.80526863 14.55824698 6.35752471 13.05099487 5.91441345 C8.54174015 4.56333217 4.29537334 2.9284561 0 1 C0 0.67 0 0.34 0 0 Z M59 26 C59 26.99 59 27.98 59 29 C59.99 29.33 60.98 29.66 62 30 C62.66 29.67 63.32 29.34 64 29 C64.33 29.99 64.66 30.98 65 32 C65.99 31.67 66.98 31.34 68 31 C66.33630748 28.39859044 66.33630748 28.39859044 64 26 C61.33071879 25.58129447 61.33071879 25.58129447 59 26 Z " fill="#190A0F" transform="translate(343,353)"/>
<path d="M0 0 C1.16781006 0.00523682 2.33562012 0.01047363 3.53881836 0.01586914 C4.79887695 0.0190918 6.05893555 0.02231445 7.35717773 0.02563477 C8.6976732 0.03399136 10.03816799 0.04245632 11.37866211 0.05102539 C12.72306153 0.05603879 14.06746271 0.06060197 15.41186523 0.06469727 C18.71334151 0.07653051 22.01473014 0.09301568 25.31616211 0.11352539 C27.67870386 4.76865344 27.58716435 8.94340872 27.54321289 14.03466797 C27.54350494 14.92297302 27.543797 15.81127808 27.5440979 16.72650146 C27.54270793 19.65378693 27.52716234 22.5808158 27.51147461 25.50805664 C27.5077433 27.54115154 27.50489688 29.57424824 27.50289917 31.60734558 C27.49527204 36.95194485 27.47563138 42.29643499 27.45349121 47.64099121 C27.43301301 53.09731571 27.42389323 58.55365789 27.41381836 64.01000977 C27.39238467 74.71122952 27.35825976 85.41236837 27.31616211 96.11352539 C28.09991211 95.12352539 28.88366211 94.13352539 29.69116211 93.11352539 C30.55741211 92.12352539 31.42366211 91.13352539 32.31616211 90.11352539 C32.97616211 90.11352539 33.63616211 90.11352539 34.31616211 90.11352539 C34.31616211 89.45352539 34.31616211 88.79352539 34.31616211 88.11352539 C35.30616211 88.60852539 35.30616211 88.60852539 36.31616211 89.11352539 C35.17965637 92.52304261 34.05803086 93.48988815 31.37866211 95.80102539 C30.31325195 96.73495117 30.31325195 96.73495117 29.22631836 97.68774414 C27.31616211 99.11352539 27.31616211 99.11352539 25.31616211 99.11352539 C25.31616211 67.10352539 25.31616211 35.09352539 25.31616211 2.11352539 C16.07616211 2.11352539 6.83616211 2.11352539 -2.68383789 2.11352539 C-2.68383789 69.76352539 -2.68383789 137.41352539 -2.68383789 207.11352539 C6.55616211 207.11352539 15.79616211 207.11352539 25.31616211 207.11352539 C25.31616211 175.10352539 25.31616211 143.09352539 25.31616211 110.11352539 C29.49415854 112.20252361 30.24008112 113.16897151 32.31616211 117.11352539 C31.32616211 117.11352539 30.33616211 117.11352539 29.31616211 117.11352539 C28.65616211 115.79352539 27.99616211 114.47352539 27.31616211 113.11352539 C26.98616211 144.13352539 26.65616211 175.15352539 26.31616211 207.11352539 C26.97616211 207.44352539 27.63616211 207.77352539 28.31616211 208.11352539 C26.99616211 208.11352539 25.67616211 208.11352539 24.31616211 208.11352539 C23.98616211 208.77352539 23.65616211 209.43352539 23.31616211 210.11352539 C23.31616211 209.45352539 23.31616211 208.79352539 23.31616211 208.11352539 C22.74704102 208.27723633 22.17791992 208.44094727 21.59155273 208.60961914 C19.27024231 209.12369475 17.28278893 209.21275091 14.90991211 209.17602539 C14.08362305 209.16829102 13.25733398 209.16055664 12.40600586 209.15258789 C10.67944336 209.12654622 8.95288086 209.10050456 7.22631836 209.07446289 C6.4000293 209.06672852 5.57374023 209.05899414 4.72241211 209.05102539 C3.97282227 209.03942383 3.22323242 209.02782227 2.45092773 209.01586914 C0.27639443 209.11534459 -1.58594077 209.55842162 -3.68383789 210.11352539 C-3.70716343 182.88058211 -3.72481536 155.64764031 -3.73565006 128.41468906 C-3.74081376 115.77092213 -3.74785784 103.12716139 -3.75927734 90.48339844 C-3.76922195 79.46743276 -3.77569078 68.45147156 -3.77792639 57.43550152 C-3.77923387 51.59872981 -3.78232212 45.76197093 -3.78956795 39.92520332 C-3.79632464 34.43830899 -3.79845557 28.95143286 -3.79694557 23.46453476 C-3.79722206 21.44441949 -3.79922925 19.42430366 -3.80304337 17.40419197 C-3.80797514 14.65884788 -3.8068381 11.91357365 -3.80409241 9.16822815 C-3.80700525 8.3579328 -3.80991809 7.54763744 -3.8129192 6.71278769 C-3.79504866 0.16052921 -3.79504866 0.16052921 0 0 Z " fill="#041425" transform="translate(280.683837890625,250.886474609375)"/>
<path d="M0 0 C4.13343541 2.90457624 6.11831867 5.313204 8 10 C8.42004604 12.85188916 8.44463098 15.65980312 8.43359375 18.5390625 C8.4388356 19.34233978 8.44407745 20.14561707 8.44947815 20.97323608 C8.45587301 22.66248421 8.45459435 24.35177703 8.44604492 26.04101562 C8.43750165 28.62449967 8.46638196 31.20579464 8.49804688 33.7890625 C8.4996583 35.43489517 8.49908248 37.08073175 8.49609375 38.7265625 C8.50732773 39.49642487 8.51856171 40.26628723 8.53013611 41.05947876 C8.48403791 44.60297765 8.36174988 46.5592995 6.07592773 49.34399414 C5.39087158 49.89047607 4.70581543 50.43695801 4 51 C2.82249774 52.90604818 1.69995611 54.84679387 0.625 56.8125 C-1.49013312 60.57121058 -3.55795255 63.84585145 -6.5 67 C-9.25335882 69.601788 -9.25335882 69.601788 -8.8671875 71.95703125 C-7.82170967 74.42002631 -6.54004382 75.82497848 -4.625 77.6875 C-3.71621094 78.59048828 -3.71621094 78.59048828 -2.7890625 79.51171875 C-0.96278 81.21440592 -0.96278 81.21440592 2 82 C2.33 83.98 2.66 85.96 3 88 C-2.80240568 88.02467332 -8.60478098 88.04284724 -14.40722656 88.05493164 C-16.38216687 88.0599681 -18.35710343 88.06679751 -20.33203125 88.07543945 C-23.16667605 88.08753508 -26.00127166 88.0932351 -28.8359375 88.09765625 C-29.72243988 88.10281754 -30.60894226 88.10797882 -31.52230835 88.11329651 C-37.77225659 88.11387171 -37.77225659 88.11387171 -40 87 C-40 86.01 -40 85.02 -40 84 C-40.59941406 83.74863281 -41.19882812 83.49726563 -41.81640625 83.23828125 C-44.29362153 81.83349191 -45.32960288 80.51694652 -46.9375 78.1875 C-48.76021779 75.63753622 -50.45382045 73.54617955 -52.6875 71.3125 C-54.97340517 69.02659483 -56.46391851 66.8296238 -58 64 C-57.34 64 -56.68 64 -56 64 C-54.625 65.3984375 -54.625 65.3984375 -53 67.375 C-49.30800771 71.73403291 -45.3223372 75.71672708 -41.234375 79.703125 C-39 82 -39 82 -37.88452148 84.10546875 C-35.42294847 86.58011657 -33.41174925 86.51530871 -30.01887512 86.60565186 C-28.82810616 86.60749481 -28.82810616 86.60749481 -27.61328125 86.609375 C-26.79627243 86.62591125 -25.97926361 86.64244751 -25.13749695 86.65948486 C-22.52908886 86.7080534 -19.92126406 86.72935459 -17.3125 86.75 C-15.5435903 86.77815241 -13.77470789 86.80807881 -12.00585938 86.83984375 C-7.67062094 86.91381428 -3.33570797 86.96333439 1 87 C-4.30484829 80.848535 -4.30484829 80.848535 -9.9375 75 C-10.81728516 74.13375 -10.81728516 74.13375 -11.71484375 73.25 C-12.13894531 72.8375 -12.56304687 72.425 -13 72 C-12.68289063 71.39671875 -12.36578125 70.7934375 -12.0390625 70.171875 C-10.90057436 67.79217799 -10.43215157 65.5929094 -10 63 C-9.34 63 -8.68 63 -8 63 C-8 61.35 -8 59.7 -8 58 C-7.01 58.33 -6.02 58.66 -5 59 C-3.08615391 55.49128216 -2.95723754 54.18632214 -3.875 50.1875 C-4.24625 49.135625 -4.6175 48.08375 -5 47 C-3.02 47 -1.04 47 1 47 C3.22923777 42.67265609 2.92470553 39.71599818 2 35 C2.66 35 3.32 35 4 35 C3.7215625 33.6696875 3.7215625 33.6696875 3.4375 32.3125 C2.58161493 26.55905036 3.43773246 20.75242941 4 15 C3.34 14.67 2.68 14.34 2 14 C2 12.02 2 10.04 2 8 C1.67 8 1.34 8 1 8 C0.505 4.04 0.505 4.04 0 0 Z " fill="#CF9E42" transform="translate(435,371)"/>
<path d="M0 0 C1.11639359 0.00493217 1.11639359 0.00493217 2.25534058 0.00996399 C3.82379948 0.02036333 5.39222053 0.04027708 6.96044922 0.0690918 C9.36577402 0.1132553 11.77010075 0.13054235 14.17578125 0.14257812 C15.70053529 0.15599916 17.22527702 0.1709213 18.75 0.1875 C19.47083771 0.19488693 20.19167542 0.20227386 20.93435669 0.20988464 C26.00537154 0.30737327 26.00537154 0.30737327 28.2421875 1.42578125 C28.2421875 3.73578125 28.2421875 6.04578125 28.2421875 8.42578125 C27.5821875 8.42578125 26.9221875 8.42578125 26.2421875 8.42578125 C26.2421875 9.08578125 26.2421875 9.74578125 26.2421875 10.42578125 C25.5821875 10.42578125 24.9221875 10.42578125 24.2421875 10.42578125 C24.2421875 11.08578125 24.2421875 11.74578125 24.2421875 12.42578125 C23.5821875 12.42578125 22.9221875 12.42578125 22.2421875 12.42578125 C22.2421875 13.08578125 22.2421875 13.74578125 22.2421875 14.42578125 C21.5821875 14.42578125 20.9221875 14.42578125 20.2421875 14.42578125 C19.9121875 15.74578125 19.5821875 17.06578125 19.2421875 18.42578125 C18.2521875 18.42578125 17.2621875 18.42578125 16.2421875 18.42578125 C16.2421875 19.08578125 16.2421875 19.74578125 16.2421875 20.42578125 C15.5821875 20.42578125 14.9221875 20.42578125 14.2421875 20.42578125 C14.2421875 21.08578125 14.2421875 21.74578125 14.2421875 22.42578125 C13.5821875 22.42578125 12.9221875 22.42578125 12.2421875 22.42578125 C12.2421875 23.08578125 12.2421875 23.74578125 12.2421875 24.42578125 C11.5821875 24.42578125 10.9221875 24.42578125 10.2421875 24.42578125 C10.2421875 25.08578125 10.2421875 25.74578125 10.2421875 26.42578125 C9.5821875 26.42578125 8.9221875 26.42578125 8.2421875 26.42578125 C8.2421875 27.08578125 8.2421875 27.74578125 8.2421875 28.42578125 C7.5821875 28.42578125 6.9221875 28.42578125 6.2421875 28.42578125 C6.2421875 29.08578125 6.2421875 29.74578125 6.2421875 30.42578125 C5.5821875 30.42578125 4.9221875 30.42578125 4.2421875 30.42578125 C4.2421875 31.08578125 4.2421875 31.74578125 4.2421875 32.42578125 C3.5821875 32.42578125 2.9221875 32.42578125 2.2421875 32.42578125 C2.2421875 33.08578125 2.2421875 33.74578125 2.2421875 34.42578125 C1.5821875 34.42578125 0.9221875 34.42578125 0.2421875 34.42578125 C0.2421875 35.08578125 0.2421875 35.74578125 0.2421875 36.42578125 C-0.4178125 36.42578125 -1.0778125 36.42578125 -1.7578125 36.42578125 C-2.0878125 37.41578125 -2.4178125 38.40578125 -2.7578125 39.42578125 C-4.2428125 39.92078125 -4.2428125 39.92078125 -5.7578125 40.42578125 C-5.7578125 41.08578125 -5.7578125 41.74578125 -5.7578125 42.42578125 C-6.4178125 42.42578125 -7.0778125 42.42578125 -7.7578125 42.42578125 C-7.7578125 43.08578125 -7.7578125 43.74578125 -7.7578125 44.42578125 C-8.4178125 44.42578125 -9.0778125 44.42578125 -9.7578125 44.42578125 C-9.7578125 45.08578125 -9.7578125 45.74578125 -9.7578125 46.42578125 C-10.7478125 46.09578125 -11.7378125 45.76578125 -12.7578125 45.42578125 C-10.7379453 41.79328135 -8.56715642 39.00606412 -5.59765625 36.10546875 C-4.80423828 35.32300781 -4.01082031 34.54054688 -3.19335938 33.734375 C-2.36900391 32.93128906 -1.54464844 32.12820313 -0.6953125 31.30078125 C0.94362846 29.69627718 2.58044537 28.08959979 4.21484375 26.48046875 C4.93937744 25.77390137 5.66391113 25.06733398 6.41040039 24.33935547 C8.41282753 22.35903799 8.41282753 22.35903799 10.2421875 19.42578125 C10.9021875 19.42578125 11.5621875 19.42578125 12.2421875 19.42578125 C12.56509766 18.60980469 12.56509766 18.60980469 12.89453125 17.77734375 C14.70598391 14.61649012 17.19714773 12.29814329 19.8046875 9.80078125 C23.46932766 6.46175223 23.46932766 6.46175223 26.2421875 2.42578125 C21.45448077 2.49461713 16.66765091 2.58256154 11.88061523 2.68823242 C10.25213341 2.72148661 8.62353619 2.74951709 6.99487305 2.7722168 C4.65363389 2.80575482 2.31345264 2.8580671 -0.02734375 2.9140625 C-0.75556839 2.92045242 -1.48379303 2.92684235 -2.23408508 2.9334259 C-6.13522642 2.90895958 -6.13522642 2.90895958 -9.25244141 4.94384766 C-10.7578125 6.42578125 -10.7578125 6.42578125 -14.24438477 6.73461914 C-15.6878806 6.72060462 -17.13127746 6.69082934 -18.57421875 6.6484375 C-19.73086281 6.63495522 -19.73086281 6.63495522 -20.91087341 6.62120056 C-23.38114326 6.59117622 -25.85044089 6.54148737 -28.3203125 6.48828125 C-41.71568952 6.22448313 -52.82524131 6.59424507 -65.41015625 11.71875 C-67.7578125 12.42578125 -67.7578125 12.42578125 -70.7578125 11.42578125 C-66.90304001 8.85593292 -63.23740668 7.56763859 -58.7578125 6.42578125 C-58.7578125 6.09578125 -58.7578125 5.76578125 -58.7578125 5.42578125 C-45.14328699 3.27683858 -32.37438292 1.81618915 -18.66552734 3.91357422 C-17.81297363 4.0323291 -16.96041992 4.15108398 -16.08203125 4.2734375 C-15.34041748 4.39726807 -14.59880371 4.52109863 -13.8347168 4.64868164 C-11.55217069 4.63617453 -11.55217069 4.63617453 -9.97241211 2.46191406 C-6.86323435 -0.396706 -4.00777408 -0.09789273 0 0 Z " fill="#071420" transform="translate(406.7578125,250.57421875)"/>
<path d="M0 0 C3 1.375 3 1.375 5 4 C6.03363749 9.02415602 5.77798684 12.74518251 3.0625 17.125 C-1.04687669 19.64094491 -4.30058883 20.05210698 -9 19 C-11.99623584 16.80763231 -12.79512943 15.2193739 -13.40625 11.58203125 C-13.65927856 7.29952285 -13.64582209 4.84764149 -11 1.375 C-7.13243146 -0.39763558 -4.17818001 -0.7918325 0 0 Z " fill="#EA6FA7" transform="translate(401,384)"/>
<path d="M0 0 C0.66 0.33 1.32 0.66 2 1 C-0.73152399 5.72763768 -2.93126149 7.92642516 -8 10 C-8 8 -8 8 -7 7 C-8.98 7 -10.96 7 -13 7 C-13 7.66 -13 8.32 -13 9 C-14.98 9 -16.96 9 -19 9 C-18.67 9.66 -18.34 10.32 -18 11 C-19.98 11 -21.96 11 -24 11 C-24.33 11.66 -24.66 12.32 -25 13 C-25.66 13 -26.32 13 -27 13 C-27.33 13.66 -27.66 14.32 -28 15 C-28.66 15 -29.32 15 -30 15 C-30 15.66 -30 16.32 -30 17 C-30.66 17 -31.32 17 -32 17 C-32 17.66 -32 18.32 -32 19 C-33.65 19 -35.3 19 -37 19 C-39.61145416 24.96903809 -41.72959302 31.43366278 -41 38 C-39.61114752 40.81780534 -39.61114752 40.81780534 -38 43 C-38.99 43.66 -39.98 44.32 -41 45 C-43.12387604 40.69348455 -43.27052898 36.76893242 -43.1875 32.0625 C-43.18685547 31.37220703 -43.18621094 30.68191406 -43.18554688 29.97070312 C-43.15068673 25.88432003 -42.78419348 22.00879709 -42 18 C-41.01 17.67 -40.02 17.34 -39 17 C-38.67 16.34 -38.34 15.68 -38 15 C-37.34 15 -36.68 15 -36 15 C-35.7628125 14.39671875 -35.525625 13.7934375 -35.28125 13.171875 C-33.70390428 10.49808164 -32.22830389 9.68501698 -29.5 8.25 C-28.7059375 7.82203125 -27.911875 7.3940625 -27.09375 6.953125 C-25 6 -25 6 -23 6 C-22.67 5.34 -22.34 4.68 -22 4 C-19.525 4.495 -19.525 4.495 -17 5 C-17 4.34 -17 3.68 -17 3 C-15.41058594 3.05220703 -15.41058594 3.05220703 -13.7890625 3.10546875 C-12.40105748 3.13360399 -11.01303537 3.16090443 -9.625 3.1875 C-8.57699219 3.22520508 -8.57699219 3.22520508 -7.5078125 3.26367188 C-5.23252323 3.32978561 -5.23252323 3.32978561 -2 3 C-1.34 2.01 -0.68 1.02 0 0 Z " fill="#902F4A" transform="translate(379,272)"/>
<path d="M0 0 C0.33 0.66 0.66 1.32 1 2 C1.99 2.33 2.98 2.66 4 3 C2.85644143 10.98784195 2.85644143 10.98784195 -0.0625 14.4375 C-3.91707117 16.48780381 -7.71652291 17.29075325 -12 18 C-11.319375 18.763125 -10.63875 19.52625 -9.9375 20.3125 C-9.298125 21.199375 -8.65875 22.08625 -8 23 C-8.33 23.99 -8.66 24.98 -9 26 C-11.15202209 23.90185329 -13.29663616 21.79697945 -15.4375 19.6875 C-16.04916016 19.09259766 -16.66082031 18.49769531 -17.29101562 17.88476562 C-17.87431641 17.30791016 -18.45761719 16.73105469 -19.05859375 16.13671875 C-19.59798584 15.60780029 -20.13737793 15.07888184 -20.69311523 14.53393555 C-22 13 -22 13 -23 10 C-19.98968256 9.06576355 -19.13349732 8.95550089 -16 10 C-11.19114702 10.63037399 -8.04196539 10.77593168 -4.0625 7.8125 C-2.16315282 5.22248111 -0.95870484 3.05042449 0 0 Z " fill="#0A070D" transform="translate(408,392)"/>
<path d="M0 0 C1.45702971 0.00502424 2.9140611 0.00958551 4.37109375 0.01367188 C7.9140977 0.02460612 11.45703797 0.04182 15 0.0625 C15 0.3925 15 0.7225 15 1.0625 C1.45908487 2.14115042 1.45908487 2.14115042 -3.5 2 C-13.63218794 1.90565933 -22.80141346 3.97235359 -32 8.0625 C-33.11375 8.413125 -34.2275 8.76375 -35.375 9.125 C-38.07703012 10.09001076 -39.77555554 11.28294443 -42 13.0625 C-44.43977296 14.40858163 -46.80565621 15.35546589 -49.4375 16.3125 C-53.66675349 18.39002803 -55.25269095 20.31616948 -58 24.0625 C-58.33 23.4025 -58.66 22.7425 -59 22.0625 C-53.33853522 13.87066993 -47.2302609 7.50365599 -37.1640625 5.55859375 C-33.61148908 4.74419515 -30.28566904 3.31355768 -26.90625 1.96484375 C-18.22250786 -0.73131812 -8.99327198 -0.05407799 0 0 Z " fill="#D53C6C" transform="translate(376,255.9375)"/>
<path d="M0 0 C2.57119339 3.79965245 1.87206752 6.67693694 1.125 11.0625 C0.28246614 16.00837673 0.28246614 16.00837673 0 21 C-2 22.6875 -2 22.6875 -4 24 C-3.835 24.598125 -3.67 25.19625 -3.5 25.8125 C-3 28 -3 28 -3 31 C-2.360625 31.2475 -1.72125 31.495 -1.0625 31.75 C1 33 1 33 1.75 35.125 C1.87375 36.053125 1.87375 36.053125 2 37 C2.66 37 3.32 37 4 37 C4 37.99 4 38.98 4 40 C5.485 39.505 5.485 39.505 7 39 C7.99 39.66 8.98 40.32 10 41 C9.01 41.99 8.02 42.98 7 44 C2.04089572 42.83315193 0.32748188 39.99133131 -2.44140625 36.04296875 C-4.63449645 33.16831669 -7.13235386 31.18487325 -10 29 C-9.58629391 26.20748391 -8.93320515 24.91761969 -7.125 22.6875 C-1.73871421 15.87543267 -1.07498236 8.41015609 0 0 Z " fill="#D39D4A" transform="translate(416,397)"/>
<path d="M0 0 C0.66 0 1.32 0 2 0 C3.375 1.3984375 3.375 1.3984375 5 3.375 C8.69199229 7.73403291 12.6776628 11.71672708 16.765625 15.703125 C19 18 19 18 20.11547852 20.10546875 C22.57705153 22.58011657 24.58825075 22.51530871 27.98112488 22.60565186 C29.17189384 22.60749481 29.17189384 22.60749481 30.38671875 22.609375 C31.61223198 22.63417938 31.61223198 22.63417938 32.86250305 22.65948486 C35.47091114 22.7080534 38.07873594 22.72935459 40.6875 22.75 C42.4564097 22.77815241 44.22529211 22.80807881 45.99414062 22.83984375 C50.32937906 22.91381428 54.66429203 22.96333439 59 23 C53.69515171 16.848535 53.69515171 16.848535 48.0625 11 C47.47597656 10.4225 46.88945312 9.845 46.28515625 9.25 C45.64900391 8.63125 45.64900391 8.63125 45 8 C45.66 6.68 46.32 5.36 47 4 C47.99 4 48.98 4 50 4 C49.75765625 4.73734375 49.5153125 5.4746875 49.265625 6.234375 C48.69101838 9.06762958 48.69101838 9.06762958 50.546875 11.203125 C51.27390625 11.87859375 52.0009375 12.5540625 52.75 13.25 C53.82507813 14.27867187 53.82507813 14.27867187 54.921875 15.328125 C56.98893294 17.18979962 56.98893294 17.18979962 60 18 C60.495 20.97 60.495 20.97 61 24 C55.19759432 24.02467332 49.39521902 24.04284724 43.59277344 24.05493164 C41.61783313 24.0599681 39.64289657 24.06679751 37.66796875 24.07543945 C34.83332395 24.08753508 31.99872834 24.0932351 29.1640625 24.09765625 C28.27756012 24.10281754 27.39105774 24.10797882 26.47769165 24.11329651 C20.22774341 24.11387171 20.22774341 24.11387171 18 23 C18 22.01 18 21.02 18 20 C17.40058594 19.74863281 16.80117188 19.49726563 16.18359375 19.23828125 C13.70637847 17.83349191 12.67039712 16.51694652 11.0625 14.1875 C9.23978221 11.63753622 7.54617955 9.54617955 5.3125 7.3125 C3.02659483 5.02659483 1.53608149 2.8296238 0 0 Z " fill="#010B1B" transform="translate(377,435)"/>
<path d="M0 0 C1.52132744 3.04265488 0.44839619 5.24004664 -0.3125 8.5 C-0.57675781 9.6653125 -0.84101563 10.830625 -1.11328125 12.03125 C-2 15 -2 15 -4 17 C-4.29347134 19.01644607 -4.29347134 19.01644607 -4.23046875 21.32421875 C-4.22853516 22.18853516 -4.22660156 23.05285156 -4.22460938 23.94335938 C-4.21236328 24.84892578 -4.20011719 25.75449219 -4.1875 26.6875 C-4.18685547 27.57373047 -4.18621094 28.45996094 -4.18554688 29.37304688 C-4.1524047 34.34805604 -3.83860963 39.09581086 -3 44 C-2.01 44.33 -1.02 44.66 0 45 C2.00293347 48.00440021 2.49271626 49.70993945 3.125 53.1875 C3.29257812 54.08855469 3.46015625 54.98960937 3.6328125 55.91796875 C3.75398438 56.60503906 3.87515625 57.29210937 4 58 C2.515 58.495 2.515 58.495 1 59 C1 57.68 1 56.36 1 55 C-0.24275509 52.77153648 -0.24275509 52.77153648 -1.875 50.5 C-8.47076832 39.87521283 -8.49751341 25.62341892 -5.75 13.6875 C-4.38034041 8.75279345 -2.49087833 4.46640253 0 0 Z " fill="#581428" transform="translate(316,280)"/>
<path d="M0 0 C4.71745462 0.65723052 9.11295661 1.89556986 13.625 3.375 C19.58523759 5.28835016 25.55038792 6.97609203 31.64453125 8.421875 C34 9 34 9 37 10 C38.32 10 39.64 10 41 10 C41 10.66 41 11.32 41 12 C42.62414378 12.19477739 44.24936423 12.38059458 45.875 12.5625 C46.77992188 12.66691406 47.68484375 12.77132813 48.6171875 12.87890625 C51.01653057 13.19674852 51.01653057 13.19674852 53 12 C53 13.65 53 15.3 53 17 C53.763125 16.938125 54.52625 16.87625 55.3125 16.8125 C58 17 58 17 59.8125 18.5 C60.204375 18.995 60.59625 19.49 61 20 C60.67 20.66 60.34 21.32 60 22 C56.02251866 20.55364315 52.15339232 19.08788583 48.34765625 17.23828125 C40.81210125 13.86517156 32.77539424 11.77832839 24.875 9.4375 C22.43874845 8.71348994 20.00310071 7.98765569 17.56887817 7.2568512 C16.06414242 6.80526863 14.55824698 6.35752471 13.05099487 5.91441345 C8.54174015 4.56333217 4.29537334 2.9284561 0 1 C0 0.67 0 0.34 0 0 Z " fill="#693727" transform="translate(343,353)"/>
<path d="M0 0 C0.99 0.33 1.98 0.66 3 1 C2.38125 1.2475 1.7625 1.495 1.125 1.75 C-1.10661476 2.79081435 -1.10661476 2.79081435 -1.8125 4.76171875 C-3.94434492 8.77996593 -7.60047003 11.5684314 -10.8828125 14.66015625 C-13.33547287 16.84483203 -13.33547287 16.84483203 -13 20 C-13.66 20 -14.32 20 -15 20 C-15 20.66 -15 21.32 -15 22 C-15.66 22 -16.32 22 -17 22 C-17 22.66 -17 23.32 -17 24 C-17.66 24 -18.32 24 -19 24 C-19 24.66 -19 25.32 -19 26 C-19.66 26 -20.32 26 -21 26 C-21.33 26.99 -21.66 27.98 -22 29 C-22.99 29.33 -23.98 29.66 -25 30 C-25 30.66 -25 31.32 -25 32 C-25.66 32 -26.32 32 -27 32 C-27 32.66 -27 33.32 -27 34 C-27.66 34 -28.32 34 -29 34 C-29 34.66 -29 35.32 -29 36 C-29.99 35.67 -30.98 35.34 -32 35 C-29.9801328 31.3675001 -27.80934392 28.58028287 -24.83984375 25.6796875 C-24.04642578 24.89722656 -23.25300781 24.11476563 -22.43554688 23.30859375 C-21.61119141 22.50550781 -20.78683594 21.70242188 -19.9375 20.875 C-18.29855904 19.27049593 -16.66174213 17.66381854 -15.02734375 16.0546875 C-13.94054321 14.99483643 -13.94054321 14.99483643 -12.83178711 13.91357422 C-10.82935997 11.93325674 -10.82935997 11.93325674 -9 9 C-8.34 9 -7.68 9 -7 9 C-6.773125 8.443125 -6.54625 7.88625 -6.3125 7.3125 C-4.64103234 4.36753316 -2.44723648 2.31843456 0 0 Z " fill="#050E19" transform="translate(426,261)"/>
<path d="M0 0 C0.9379541 0.09007324 1.8759082 0.18014648 2.84228516 0.27294922 C9.33208475 1.01958475 9.33208475 1.01958475 11.625 3.3125 C10.58682129 3.30202637 9.54864258 3.29155273 8.47900391 3.28076172 C4.58385745 3.2442392 0.68872576 3.22148358 -3.20654297 3.20263672 C-4.88430334 3.19265197 -6.56204664 3.17905943 -8.23974609 3.16162109 C-20.80130797 3.03443434 -31.26246728 3.81487876 -43.02734375 8.60546875 C-45.375 9.3125 -45.375 9.3125 -48.375 8.3125 C-44.52022751 5.74265167 -40.85459418 4.45435734 -36.375 3.3125 C-36.375 2.9825 -36.375 2.6525 -36.375 2.3125 C-24.16533357 0.2898821 -12.37187487 -1.1909975 0 0 Z " fill="#3D0D16" transform="translate(384.375,253.6875)"/>
<path d="M0 0 C-0.8125 1.9375 -0.8125 1.9375 -2 4 C-2.99 4.33 -3.98 4.66 -5 5 C-5 3 -5 3 -4 2 C-5.98 2 -7.96 2 -10 2 C-10 2.66 -10 3.32 -10 4 C-11.98 4 -13.96 4 -16 4 C-15.67 4.66 -15.34 5.32 -15 6 C-16.98 6 -18.96 6 -21 6 C-21.33 6.66 -21.66 7.32 -22 8 C-22.66 8 -23.32 8 -24 8 C-24.33 8.66 -24.66 9.32 -25 10 C-25.66 10 -26.32 10 -27 10 C-27 10.66 -27 11.32 -27 12 C-27.66 12 -28.32 12 -29 12 C-29 12.66 -29 13.32 -29 14 C-30.65 14 -32.3 14 -34 14 C-34.33 14.99 -34.66 15.98 -35 17 C-35.33 16.34 -35.66 15.68 -36 15 C-30.842221 7.7791094 -22.62221301 2.24020244 -13.7890625 0.5859375 C-9.1656488 0.13527985 -4.64565639 -0.09884375 0 0 Z " fill="#2A1320" transform="translate(376,277)"/>
<path d="M0 0 C1.1055189 0.93590504 2.20935453 1.87379858 3.3125 2.8125 C4.23482422 3.59560547 4.23482422 3.59560547 5.17578125 4.39453125 C8.51952278 7.3373102 8.51952278 7.3373102 10 9 C10 9.66 10 10.32 10 11 C-2.21 11 -14.42 11 -27 11 C-27.33 10.34 -27.66 9.68 -28 9 C-16.78 9 -5.56 9 6 9 C6 8.34 6 7.68 6 7 C5.01 6.67 4.02 6.34 3 6 C3 5.34 3 4.68 3 4 C2.34 4 1.68 4 1 4 C0.67 2.68 0.34 1.36 0 0 Z " fill="#387EAA" transform="translate(426,447)"/>
<path d="M0 0 C13.51554804 1.47504712 25.37125248 8.89374325 36 17 C35.67 17.66 35.34 18.32 35 19 C34.01 19 33.02 19 32 19 C31.7525 18.38125 31.505 17.7625 31.25 17.125 C29.79371361 14.64931313 28.62187494 14.04874998 26 13 C25.67 13.66 25.34 14.32 25 15 C24.5875 14.54625 24.175 14.0925 23.75 13.625 C20.48547856 10.59365866 18.50814714 10 14 10 C14 9.01 14 8.02 14 7 C13.34 7 12.68 7 12 7 C12 6.34 12 5.68 12 5 C11.30132812 4.80664062 10.60265625 4.61328125 9.8828125 4.4140625 C8.51769531 4.02347656 8.51769531 4.02347656 7.125 3.625 C5.76761719 3.24214844 5.76761719 3.24214844 4.3828125 2.8515625 C2 2 2 2 0 0 Z " fill="#7C472B" transform="translate(391,343)"/>
<path d="M0 0 C0.66 0.33 1.32 0.66 2 1 C3.96315804 6.88947412 3.30705396 13.63443751 3.35009766 19.81469727 C3.3666835 21.56157733 3.3940083 23.30838881 3.43212891 25.05493164 C3.48686563 27.5773425 3.5087612 30.09816927 3.5234375 32.62109375 C3.54610687 33.40036728 3.56877625 34.17964081 3.59213257 34.98252869 C3.57637326 39.02339887 3.38577579 40.61560012 0.46728516 43.52368164 C-0.34691895 44.0108667 -1.16112305 44.49805176 -2 45 C-1.86722656 44.41992188 -1.73445313 43.83984375 -1.59765625 43.2421875 C-1.42105469 42.46101563 -1.24445313 41.67984375 -1.0625 40.875 C-0.88847656 40.10929687 -0.71445312 39.34359375 -0.53515625 38.5546875 C0.68457774 32.73201573 1.19187798 27.24591021 1.1875 21.3125 C1.18955444 20.12636108 1.18955444 20.12636108 1.19165039 18.91625977 C1.14618622 13.41509471 0.59103574 8.24385934 -0.66015625 2.87109375 C-0.77230469 2.25363281 -0.88445312 1.63617188 -1 1 C-0.67 0.67 -0.34 0.34 0 0 Z " fill="#0C0503" transform="translate(440,377)"/>
<path d="M0 0 C0.99 0.33 1.98 0.66 3 1 C3 1.99 3 2.98 3 4 C2.34 4 1.68 4 1 4 C1 4.66 1 5.32 1 6 C0.34 6 -0.32 6 -1 6 C-1 6.66 -1 7.32 -1 8 C-1.66 8 -2.32 8 -3 8 C-3 8.66 -3 9.32 -3 10 C-3.66 10 -4.32 10 -5 10 C-5 10.66 -5 11.32 -5 12 C-5.66 12 -6.32 12 -7 12 C-7 12.66 -7 13.32 -7 14 C-7.66 14 -8.32 14 -9 14 C-9 14.66 -9 15.32 -9 16 C-9.66 16 -10.32 16 -11 16 C-11 16.66 -11 17.32 -11 18 C-11.66 18 -12.32 18 -13 18 C-12.71911012 11.96539812 -10.13441354 9.51014282 -5.9375 5.625 C-5.08575195 4.80708984 -5.08575195 4.80708984 -4.21679688 3.97265625 C-2.82229978 2.63675147 -1.41261282 1.31673412 0 0 Z " fill="#040103" transform="translate(388,301)"/>
<path d="M0 0 C3.63 0 7.26 0 11 0 C3.50914634 11.65243902 3.50914634 11.65243902 -3 15 C-2.01 12.03 -1.02 9.06 0 6 C0.66 6 1.32 6 2 6 C2 5.34 2 4.68 2 4 C1.34 3.67 0.68 3.34 0 3 C0 2.01 0 1.02 0 0 Z " fill="#DD5272" transform="translate(384,257)"/>
<path d="M0 0 C-1.36125 1.11375 -1.36125 1.11375 -2.75 2.25 C-6.57651988 5.41705236 -6.57651988 5.41705236 -10 9 C-10 10.32 -10 11.64 -10 13 C-10.99 13.495 -10.99 13.495 -12 14 C-11.67 14.99 -11.34 15.98 -11 17 C-12.65 17.99 -14.3 18.98 -16 20 C-15.11923515 12.5894268 -13.25053111 7.40571922 -8 2 C-3.76056338 -1.25352113 -3.76056338 -1.25352113 0 0 Z " fill="#D9306F" transform="translate(330,272)"/>
<path d="M0 0 C0.58523438 0.23074219 1.17046875 0.46148437 1.7734375 0.69921875 C1.7734375 1.68921875 1.7734375 2.67921875 1.7734375 3.69921875 C1.1134375 3.69921875 0.4534375 3.69921875 -0.2265625 3.69921875 C-0.2265625 4.35921875 -0.2265625 5.01921875 -0.2265625 5.69921875 C-0.8865625 5.69921875 -1.5465625 5.69921875 -2.2265625 5.69921875 C-2.2265625 6.35921875 -2.2265625 7.01921875 -2.2265625 7.69921875 C-3.8765625 7.69921875 -5.5265625 7.69921875 -7.2265625 7.69921875 C-5.9213235 10.30969676 -4.86829676 10.37988298 -2.1640625 11.32421875 C-1.43058594 11.58460938 -0.69710938 11.845 0.05859375 12.11328125 C0.90744141 12.40332031 0.90744141 12.40332031 1.7734375 12.69921875 C-1.77899132 13.88336169 -2.92486812 13.39457407 -6.4140625 12.26171875 C-7.31511719 11.97425781 -8.21617187 11.68679688 -9.14453125 11.390625 C-9.83160156 11.16246094 -10.51867187 10.93429687 -11.2265625 10.69921875 C-9.8361126 7.59479844 -8.21084652 5.33357445 -5.8515625 2.88671875 C-5.26632812 2.26152344 -4.68109375 1.63632812 -4.078125 0.9921875 C-2.2265625 -0.30078125 -2.2265625 -0.30078125 0 0 Z " fill="#110B11" transform="translate(369.2265625,323.30078125)"/>
<path d="M0 0 C4.50443885 1.3391575 5.7664425 2.95832452 8 7 C8.66 7 9.32 7 10 7 C11.03435556 8.64556566 12.02763513 10.3170608 13 12 C15.49398408 15.70473976 15.49398408 15.70473976 19.25 17.8125 C20.11625 17.9053125 20.11625 17.9053125 21 18 C20.67 19.32 20.34 20.64 20 22 C15.75260935 20.15330841 13.92534406 19.14334042 12 15 C11.1233931 13.84351259 10.20451363 12.71807205 9.25 11.625 C8.72664063 11.02558594 8.20328125 10.42617188 7.6640625 9.80859375 C6.03652126 8.03969329 4.3507764 6.36011268 2.625 4.6875 C0 2 0 2 0 0 Z " fill="#092033" transform="translate(345,360)"/>
<path d="M0 0 C0.66 0 1.32 0 2 0 C2 0.66 2 1.32 2 2 C4.31 2.33 6.62 2.66 9 3 C9.33 4.65 9.66 6.3 10 8 C10.66 8 11.32 8 12 8 C12 8.99 12 9.98 12 11 C12.99 10.67 13.98 10.34 15 10 C15.99 10.66 16.98 11.32 18 12 C17.01 12.99 16.02 13.98 15 15 C10.03258696 13.83119693 8.20967854 10.93629296 5.42578125 6.97265625 C3.81826624 4.74856014 1.97482978 2.89887479 0 1 C0 0.67 0 0.34 0 0 Z " fill="#CDA94B" transform="translate(408,426)"/>
<path d="M0 0 C-0.6496875 0.61875 -0.6496875 0.61875 -1.3125 1.25 C-3.05810749 2.93936609 -3.05810749 2.93936609 -4.25 5 C-6 7 -6 7 -9.375 8.375 C-13.74543255 10.33415942 -15.21342539 12.20012553 -18 16 C-18.33 15.34 -18.66 14.68 -19 14 C-7.57856713 -2.52618904 -7.57856713 -2.52618904 0 0 Z " fill="#C12E65" transform="translate(336,264)"/>
<path d="M0 0 C0.99 1.485 0.99 1.485 2 3 C4.43693311 3.36416047 4.43693311 3.36416047 7.125 3.1875 C8.49011719 3.14689453 8.49011719 3.14689453 9.8828125 3.10546875 C10.58148438 3.07066406 11.28015625 3.03585937 12 3 C12 4.65 12 6.3 12 8 C11.34 8 10.68 8 10 8 C10.66 9.65 11.32 11.3 12 13 C9.33333333 11 6.66666667 9 4 7 C2.87851562 6.28263672 2.87851562 6.28263672 1.734375 5.55078125 C1.16203125 5.03902344 0.5896875 4.52726562 0 4 C0 2.68 0 1.36 0 0 Z " fill="#EC496A" transform="translate(318,330)"/>
<path d="M0 0 C4.89744024 1.80432009 6.697902 3.395804 9 8 C9.50273437 8.59554688 10.00546875 9.19109375 10.5234375 9.8046875 C12.27728204 12.41225531 12.48277511 14.13818165 12.6875 17.25 C12.78611328 18.58804687 12.78611328 18.58804687 12.88671875 19.953125 C12.92410156 20.62859375 12.96148437 21.3040625 13 22 C11 21 11 21 10.359375 19.21484375 C10.05773437 18.08755859 10.05773437 18.08755859 9.75 16.9375 C8.16207256 11.84798896 5.5925628 7.92279837 2 4 C1.34 3.67 0.68 3.34 0 3 C0 2.01 0 1.02 0 0 Z " fill="#D6924E" transform="translate(404,373)"/>
<path d="M0 0 C0.53625 0.2475 1.0725 0.495 1.625 0.75 C1.295 1.41 0.965 2.07 0.625 2.75 C-0.035 2.75 -0.695 2.75 -1.375 2.75 C-1.705 3.41 -2.035 4.07 -2.375 4.75 C-3.035 4.75 -3.695 4.75 -4.375 4.75 C-4.375 5.41 -4.375 6.07 -4.375 6.75 C-5.035 6.75 -5.695 6.75 -6.375 6.75 C-6.375 7.41 -6.375 8.07 -6.375 8.75 C-8.025 8.75 -9.675 8.75 -11.375 8.75 C-11.705 9.74 -12.035 10.73 -12.375 11.75 C-12.705 11.09 -13.035 10.43 -13.375 9.75 C-5.40154867 -0.56858407 -5.40154867 -0.56858407 0 0 Z " fill="#23070B" transform="translate(353.375,282.25)"/>
<path d="M0 0 C4.90687153 3.9939652 9.44270563 8.3040953 13.9375 12.75 C14.52942139 13.32903076 15.12134277 13.90806152 15.73120117 14.50463867 C17.19409125 15.96410929 18.60214515 17.47812494 20 19 C20 19.66 20 20.32 20 21 C19.01 20.67 18.02 20.34 17 20 C17 19.34 17 18.68 17 18 C16.34 18 15.68 18 15 18 C13.64613064 16.34997172 12.31321858 14.6825613 11 13 C10.34 12.67 9.68 12.34 9 12 C9 11.34 9 10.68 9 10 C8.34 10 7.68 10 7 10 C7 9.34 7 8.68 7 8 C6.01 8 5.02 8 4 8 C2.15473038 5.37403939 1.01624151 3.04872454 0 0 Z " fill="#030D1C" transform="translate(334,390)"/>
<path d="M0 0 C0.66 0 1.32 0 2 0 C3.375 1.3984375 3.375 1.3984375 5 3.375 C9.37943323 8.54143497 14.17031617 13.25777524 19 18 C18.67 18.66 18.34 19.32 18 20 C14.68130359 18.6082886 13.09600576 17.13354851 11.0625 14.1875 C9.23978221 11.63753622 7.54617955 9.54617955 5.3125 7.3125 C3.02659483 5.02659483 1.53608149 2.8296238 0 0 Z " fill="#071A2D" transform="translate(377,435)"/>
<path d="M0 0 C5.35247166 1.459765 8.32870309 5.09380969 12 9 C12.99658123 10.00340713 13.99544426 11.00457659 15 12 C11.5625 11.1875 11.5625 11.1875 8 10 C7.67 9.01 7.34 8.02 7 7 C3.95893743 4.56714994 2.61650483 3.94183917 -1.3125 4.3125 C-2.6428125 4.6528125 -2.6428125 4.6528125 -4 5 C-3.34 4.01 -2.68 3.02 -2 2 C-1.34 2 -0.68 2 0 2 C0 1.34 0 0.68 0 0 Z " fill="#8471A2" transform="translate(320,336)"/>
<path d="M0 0 C1.32 0 2.64 0 4 0 C3.67 1.65 3.34 3.3 3 5 C2.34 5 1.68 5 1 5 C1 5.66 1 6.32 1 7 C-0.63064764 8.05771739 -2.30280873 9.05273046 -4 10 C-4.99 10.66 -5.98 11.32 -7 12 C-7 10.68 -7 9.36 -7 8 C-6.34 7.67 -5.68 7.34 -5 7 C-4.67 6.01 -4.34 5.02 -4 4 C-2.68 4 -1.36 4 0 4 C-0.33 3.01 -0.66 2.02 -1 1 C-0.67 0.67 -0.34 0.34 0 0 Z " fill="#318FC3" transform="translate(390,294)"/>
<path d="M0 0 C11.22 0 22.44 0 34 0 C32 4 32 4 30 5 C30 3.68 30 2.36 30 1 C14.655 1.495 14.655 1.495 -1 2 C-0.67 1.34 -0.34 0.68 0 0 Z " fill="#3583AF" transform="translate(399,253)"/>
<path d="M0 0 C0.99 0.33 1.98 0.66 3 1 C5.14255793 0.61067144 5.14255793 0.61067144 7 0 C5.70306052 3.89081843 4.29300888 6.48181674 1 9 C-1.25 8.75 -1.25 8.75 -3 8 C-2.67 7.01 -2.34 6.02 -2 5 C-1.34 5 -0.68 5 0 5 C0 3.35 0 1.7 0 0 Z " fill="#A98332" transform="translate(427,429)"/>
<path d="M0 0 C2.64 0 5.28 0 8 0 C6.82865791 3.51402627 5.96858157 4.79259319 3 7 C0.24186016 7.34278985 -2.2035497 7.18643002 -5 7 C-4.0409375 6.6596875 -4.0409375 6.6596875 -3.0625 6.3125 C-0.72806339 5.14749104 -0.72806339 5.14749104 -0.25 2.375 C-0.1675 1.59125 -0.085 0.8075 0 0 Z " fill="#EF486A" transform="translate(374,269)"/>
<path d="M0 0 C2.34810498 3.52215748 1.9089888 4.86814649 1.30078125 8.8984375 C0.35139563 15.53180715 1.54727323 21.55352494 3 28 C2.34 28 1.68 28 1 28 C-1.04112069 22.11060037 -1.27278042 16.8280285 -1.1875 10.625 C-1.18685547 9.71105469 -1.18621094 8.79710937 -1.18554688 7.85546875 C-1.14064837 1.14064837 -1.14064837 1.14064837 0 0 Z " fill="#E43D74" transform="translate(312,296)"/>
<path d="M0 0 C1.98 0 3.96 0 6 0 C6 4.08378077 5.19287411 7.12315913 4 11 C3.34 11 2.68 11 2 11 C1.24758891 7.34543185 0.59950296 3.68266103 0 0 Z " fill="#DDA736" transform="translate(430,418)"/>
<path d="M0 0 C3.65316671 1.24976756 4.78065836 1.67098753 7 5 C7.66 5.33 8.32 5.66 9 6 C11 7 11 7 13 10 C12.443125 9.649375 11.88625 9.29875 11.3125 8.9375 C8.43656945 7.77158221 6.97068984 8.31445619 4 9 C3.01 8.67 2.02 8.34 1 8 C1.99 7.01 2.98 6.02 4 5 C2.68 4.34 1.36 3.68 0 3 C0 2.01 0 1.02 0 0 Z " fill="#D98F4B" transform="translate(417,356)"/>
<path d="M0 0 C15.20588235 12.61764706 15.20588235 12.61764706 17 18 C16.34 18 15.68 18 15 18 C13.44921875 16.35546875 13.44921875 16.35546875 11.6875 14.1875 C9.01664847 11.02699236 6.65964839 8.98666627 3 7 C1.25372522 4.38058783 0.61277612 2.96175123 0 0 Z " fill="#0B2236" transform="translate(317,372)"/>
<path d="M0 0 C6.29722557 1.39938346 12.06084316 3.49289691 18 6 C17.67 6.66 17.34 7.32 17 8 C14.69 7.34 12.38 6.68 10 6 C10 5.34 10 4.68 10 4 C8.3603125 4.061875 8.3603125 4.061875 6.6875 4.125 C3 4 3 4 0 2 C0 1.34 0 0.68 0 0 Z " fill="#DC7C5A" transform="translate(385,342)"/>
<path d="M0 0 C3 1 3 1 5 4 C5.43738696 5.71444889 5.80848688 7.44667784 6.125 9.1875 C6.29257812 10.08855469 6.46015625 10.98960937 6.6328125 11.91796875 C6.75398438 12.60503906 6.87515625 13.29210937 7 14 C6.01 14.33 5.02 14.66 4 15 C4 13.68 4 12.36 4 11 C3.34 10.030625 2.68 9.06125 2 8.0625 C-0.06152268 4.9057934 -0.42981486 3.65342628 0 0 Z " fill="#7D2942" transform="translate(313,324)"/>
<path d="M0 0 C0.33 0 0.66 0 1 0 C1 2.31 1 4.62 1 7 C0.34 7 -0.32 7 -1 7 C-1 7.66 -1 8.32 -1 9 C-1.66 9 -2.32 9 -3 9 C-3 9.66 -3 10.32 -3 11 C-3.66 11 -4.32 11 -5 11 C-5 11.66 -5 12.32 -5 13 C-5.66 13 -6.32 13 -7 13 C-7 7.67373311 -5.58706631 6.757879 -2 3 C-1.34 3 -0.68 3 0 3 C0 2.01 0 1.02 0 0 Z " fill="#050911" transform="translate(434,252)"/>
<path d="M0 0 C0.33 0.99 0.66 1.98 1 3 C-0.14453125 4.82421875 -0.14453125 4.82421875 -1.8125 6.6875 C-2.35519531 7.31011719 -2.89789063 7.93273437 -3.45703125 8.57421875 C-5 10 -5 10 -7 10 C-7 9.34 -7 8.68 -7 8 C-7.99 7.67 -8.98 7.34 -10 7 C-10.33 6.01 -10.66 5.02 -11 4 C-9.02 3.67 -7.04 3.34 -5 3 C-4.67 3.99 -4.34 4.98 -4 6 C-2.68 4.02 -1.36 2.04 0 0 Z " fill="#191817" transform="translate(411,414)"/>
<path d="M0 0 C0 3 0 3 -1.5 4.6875 C-1.995 5.120625 -2.49 5.55375 -3 6 C-3 3 -3 3 -1.5 1.3125 C-0.7575 0.6628125 -0.7575 0.6628125 0 0 Z M-5 5 C-4.34 5.66 -3.68 6.32 -3 7 C-4.25541557 9.51083114 -5.50063488 9.87125446 -8 11 C-8 11.66 -8 12.32 -8 13 C-9.65 13.66 -11.3 14.32 -13 15 C-10.83735988 11.01618925 -8.28788824 8.11016455 -5 5 Z " fill="#050F23" transform="translate(388,301)"/>
<path d="M0 0 C0.66 0.33 1.32 0.66 2 1 C1.75378906 1.73605469 1.50757813 2.47210938 1.25390625 3.23046875 C0.68237254 6.08883136 0.68237254 6.08883136 2.65234375 8.23828125 C3.40644531 8.92277344 4.16054688 9.60726563 4.9375 10.3125 C5.68902344 11.00988281 6.44054687 11.70726562 7.21484375 12.42578125 C7.80394531 12.94527344 8.39304687 13.46476562 9 14 C8.67 14.66 8.34 15.32 8 16 C4.37 12.37 0.74 8.74 -3 5 C-1 1 -1 1 0 0 Z " fill="#121E27" transform="translate(425,438)"/>
<path d="M0 0 C3.39108784 2.18500716 4.82782906 3.21238929 5.70703125 7.234375 C5.74183594 8.39453125 5.77664063 9.5546875 5.8125 10.75 C5.86019531 11.92046875 5.90789062 13.0909375 5.95703125 14.296875 C5.97121094 15.18890625 5.98539062 16.0809375 6 17 C4.015625 15.69921875 4.015625 15.69921875 2 14 C1.75 10.8125 1.75 10.8125 2 8 C1.67 8 1.34 8 1 8 C0.67 5.36 0.34 2.72 0 0 Z " fill="#AA803C" transform="translate(435,371)"/>
<path d="M0 0 C1.46555316 0.73579212 2.92224487 1.48925126 4.375 2.25 C5.18710937 2.66765625 5.99921875 3.0853125 6.8359375 3.515625 C9 5 9 5 11 9 C6.545 8.01 6.545 8.01 2 7 C1.34 4.69 0.68 2.38 0 0 Z " fill="#9D5C7F" transform="translate(341,322)"/>
<path d="M0 0 C2.375 0.25 2.375 0.25 5 1 C6.1875 3 6.1875 3 7 5 C7.66 5.33 8.32 5.66 9 6 C8.67 6.66 8.34 7.32 8 8 C4.64701839 6.88233946 3.45275901 5.45275901 1 3 C0.34 3 -0.32 3 -1 3 C-0.67 2.01 -0.34 1.02 0 0 Z " fill="#1E4E6F" transform="translate(354,411)"/>
<path d="M0 0 C2.4375 1.5625 2.4375 1.5625 5 4 C5.8125 7.75 5.8125 7.75 6 11 C5.67 10.34 5.34 9.68 5 9 C2.97536745 8.34786708 2.97536745 8.34786708 1 8 C0.67 5.36 0.34 2.72 0 0 Z " fill="#DA9A44" transform="translate(430,367)"/>
<path d="M0 0 C0.66 0.33 1.32 0.66 2 1 C0.02 3.97 0.02 3.97 -2 7 C-2.66 6.67 -3.32 6.34 -4 6 C-6.04055005 5.92934383 -8.08334257 5.91578024 -10.125 5.9375 C-11.22070312 5.94652344 -12.31640625 5.95554687 -13.4453125 5.96484375 C-14.70988281 5.98224609 -14.70988281 5.98224609 -16 6 C-16 5.34 -16 4.68 -16 4 C-11.89779467 2.94136637 -8.17836483 3.01837915 -3.98828125 3.2578125 C-3.00408203 3.13019531 -3.00408203 3.13019531 -2 3 C-1.34 2.01 -0.68 1.02 0 0 Z " fill="#AF5879" transform="translate(379,272)"/>
<path d="M0 0 C0.66 1.32 1.32 2.64 2 4 C0.6875 5.5 0.6875 5.5 -1 7 C-1.99 7 -2.98 7 -4 7 C-4 7.99 -4 8.98 -4 10 C-4.99 9.67 -5.98 9.34 -7 9 C-3.375 2.25 -3.375 2.25 0 0 Z " fill="#2A7CAB" transform="translate(359,294)"/>
<path d="M0 0 C0 3.86695678 -1.41909971 6.5088452 -3 10 C-3.99 10 -4.98 10 -6 10 C-6.99 10.33 -7.98 10.66 -9 11 C-9.33 11.99 -9.66 12.98 -10 14 C-10.66 13.67 -11.32 13.34 -12 13 C-7.375 8.125 -7.375 8.125 -4 7 C-3.28272222 5.35448038 -2.61674772 3.68577711 -2 2 C-1.34 1.34 -0.68 0.68 0 0 Z " fill="#3C90C8" transform="translate(381,272)"/>
<path d="M0 0 C0.99 0.33 1.98 0.66 3 1 C2.38125 1.2475 1.7625 1.495 1.125 1.75 C-1.42503925 3.25002309 -1.76222348 4.3697249 -3 7 C-4.29470975 8.37086915 -5.62150897 9.71340837 -7 11 C-7.99 10.67 -8.98 10.34 -10 10 C-9.01 9.67 -8.02 9.34 -7 9 C-6.71125 8.4225 -6.4225 7.845 -6.125 7.25 C-4.61984999 4.23969997 -2.42622037 2.29852456 0 0 Z " fill="#08192B" transform="translate(426,261)"/>
<path d="M0 0 C0.33 0 0.66 0 1 0 C1.64196266 3.68651822 2.15094565 7.25331341 2 11 C-0.4375 13.6875 -0.4375 13.6875 -3 15 C-2.86722656 14.41992188 -2.73445313 13.83984375 -2.59765625 13.2421875 C-1.60295999 8.84229018 -0.68631668 4.46105842 0 0 Z " fill="#26190F" transform="translate(441,407)"/>
<path d="M0 0 C0.66 0.33 1.32 0.66 2 1 C1.25 5.75 1.25 5.75 -1 8 C-4.5625 7.75 -4.5625 7.75 -8 7 C-8.33 6.34 -8.66 5.68 -9 5 C-6.36 5.33 -3.72 5.66 -1 6 C-1.20625 5.38125 -1.4125 4.7625 -1.625 4.125 C-1.74875 3.42375 -1.8725 2.7225 -2 2 C-1.34 1.34 -0.68 0.68 0 0 Z " fill="#388EC2" transform="translate(360,324)"/>
<path d="M0 0 C1.32 0.33 2.64 0.66 4 1 C4 1.66 4 2.32 4 3 C3.01 3.495 3.01 3.495 2 4 C2.33 4.99 2.66 5.98 3 7 C0.525 8.485 0.525 8.485 -2 10 C-1.34 6.7 -0.68 3.4 0 0 Z " fill="#EB2F76" transform="translate(316,282)"/>
<path d="M0 0 C0.33 0 0.66 0 1 0 C1.13277344 0.69867188 1.26554687 1.39734375 1.40234375 2.1171875 C1.57894531 3.02726562 1.75554687 3.93734375 1.9375 4.875 C2.19853516 6.23238281 2.19853516 6.23238281 2.46484375 7.6171875 C2.89963701 9.99956317 2.89963701 9.99956317 4 12 C0.625 12.1875 0.625 12.1875 -3 12 C-3.66 11.01 -4.32 10.02 -5 9 C-3.68 8.67 -2.36 8.34 -1 8 C-0.67 5.36 -0.34 2.72 0 0 Z " fill="#26131F" transform="translate(387,390)"/>
<path d="M0 0 C1.32 0.33 2.64 0.66 4 1 C3.67 1.66 3.34 2.32 3 3 C4.32 3.66 5.64 4.32 7 5 C6.01 6.485 6.01 6.485 5 8 C3.68 7.67 2.36 7.34 1 7 C0.67 4.69 0.34 2.38 0 0 Z " fill="#18354E" transform="translate(339,352)"/>
<path d="M0 0 C0 3 0 3 -1.96875 5.26171875 C-2.8040625 6.06222656 -3.639375 6.86273438 -4.5 7.6875 C-5.3353125 8.49574219 -6.170625 9.30398438 -7.03125 10.13671875 C-7.6809375 10.75160156 -8.330625 11.36648438 -9 12 C-9.66 11.67 -10.32 11.34 -11 11 C-10.67 10.01 -10.34 9.02 -10 8 C-9.34 7.67 -8.68 7.34 -8 7 C-7.34 6.34 -6.68 5.68 -6 5 C-4.02064376 3.30780425 -2.00779218 1.65861093 0 0 Z " fill="#081C31" transform="translate(370,282)"/>
<path d="M0 0 C5.29158974 1.40071493 7.77478044 4.85487245 11 9 C10.67 9.66 10.34 10.32 10 11 C9.443125 10.195625 8.88625 9.39125 8.3125 8.5625 C5.78135513 5.75771784 4.67420866 5.30618405 1 5 C0.67 3.35 0.34 1.7 0 0 Z " fill="#2D170B" transform="translate(401,374)"/>
<path d="M0 0 C1.13199353 0.9080162 2.25532363 1.82683826 3.375 2.75 C4.00148438 3.26046875 4.62796875 3.7709375 5.2734375 4.296875 C7.08312318 6.08199481 8.00117455 7.67949644 9 10 C7.02 10 5.04 10 3 10 C3.99 9.67 4.98 9.34 6 9 C6 8.34 6 7.68 6 7 C5.01 6.67 4.02 6.34 3 6 C3 5.34 3 4.68 3 4 C2.34 4 1.68 4 1 4 C0.67 2.68 0.34 1.36 0 0 Z " fill="#3A8FC1" transform="translate(426,447)"/>
<path d="M0 0 C5.11020455 2.01718601 7.42179063 2.96635314 10 8 C9.67 8.66 9.34 9.32 9 10 C7.49702124 8.52386015 5.99768715 7.04400843 4.5 5.5625 C3.6646875 4.73878906 2.829375 3.91507812 1.96875 3.06640625 C0 1 0 1 0 0 Z " fill="#3791C6" transform="translate(383,440)"/>
<path d="M0 0 C0.99 0.33 1.98 0.66 3 1 C3 1.66 3 2.32 3 3 C3.598125 3.268125 4.19625 3.53625 4.8125 3.8125 C6.97224808 4.98493467 8.35790256 6.19369282 10 8 C9.67 8.66 9.34 9.32 9 10 C8.5875 9.505 8.175 9.01 7.75 8.5 C5.87797662 6.56613908 5.87797662 6.56613908 2 7 C1.34 4.69 0.68 2.38 0 0 Z " fill="#66999B" transform="translate(406,426)"/>
<path d="M0 0 C2.97 0.99 5.94 1.98 9 3 C8.67 4.32 8.34 5.64 8 7 C2.25 4.5 2.25 4.5 0 0 Z " fill="#1E5275" transform="translate(357,375)"/>
<path d="M0 0 C1.04449911 3.13349732 0.93423645 3.98968256 0 7 C-0.66 7 -1.32 7 -2 7 C-2.66 8.32 -3.32 9.64 -4 11 C-3.67 7.7 -3.34 4.4 -3 1 C-2.01 0.67 -1.02 0.34 0 0 Z " fill="#CF3D67" transform="translate(340,289)"/>
<path d="M0 0 C-2.31 2.31 -4.62 4.62 -7 7 C-7.33 5.68 -7.66 4.36 -8 3 C-5.45189726 -0.82215411 -4.39145359 -1.46381786 0 0 Z " fill="#3294CE" transform="translate(406,283)"/>
<path d="M0 0 C0.66 0 1.32 0 2 0 C2.0825 0.78375 2.165 1.5675 2.25 2.375 C2.72806339 5.14749104 2.72806339 5.14749104 5.0625 6.3125 C5.701875 6.539375 6.34125 6.76625 7 7 C6.67 7.99 6.34 8.98 6 10 C5.34 10 4.68 10 4 10 C4 9.34 4 8.68 4 8 C3.34 8 2.68 8 2 8 C1.34 5.36 0.68 2.72 0 0 Z " fill="#276B93" transform="translate(311,362)"/>
<path d="M0 0 C0.66 0.33 1.32 0.66 2 1 C-1.75 6.875 -1.75 6.875 -4 8 C-3.67 5.69 -3.34 3.38 -3 1 C-2.01 0.67 -1.02 0.34 0 0 Z " fill="#25739C" transform="translate(375,312)"/>
<path d="M0 0 C1.1055189 0.93590504 2.20935453 1.87379858 3.3125 2.8125 C3.92738281 3.33457031 4.54226563 3.85664063 5.17578125 4.39453125 C8.51952278 7.3373102 8.51952278 7.3373102 10 9 C10 9.66 10 10.32 10 11 C9.01 10.67 8.02 10.34 7 10 C7 9.34 7 8.68 7 8 C6.34 8 5.68 8 5 8 C0 2.52380952 0 2.52380952 0 0 Z " fill="#0A1F37" transform="translate(344,400)"/>
<path d="M0 0 C3.875 1.875 3.875 1.875 5 3 C5.07205511 4.68608966 5.08386068 6.37500659 5.0625 8.0625 C5.05347656 8.98160156 5.04445313 9.90070313 5.03515625 10.84765625 C5.02355469 11.55792969 5.01195312 12.26820313 5 13 C4.67 13 4.34 13 4 13 C3.67 10.36 3.34 7.72 3 5 C2.34 5 1.68 5 1 5 C0.67 3.35 0.34 1.7 0 0 Z " fill="#D06F9E" transform="translate(401,385)"/>
<path d="M0 0 C1.98 0.66 3.96 1.32 6 2 C6.33 3.98 6.66 5.96 7 8 C5.8274869 7.04882866 4.66212985 6.08882991 3.5 5.125 C2.8503125 4.59132813 2.200625 4.05765625 1.53125 3.5078125 C1.0259375 3.01023437 0.520625 2.51265625 0 2 C0 1.34 0 0.68 0 0 Z " fill="#358CC3" transform="translate(317,370)"/>
<path d="M0 0 C0.33 0.99 0.66 1.98 1 3 C0.01 3.33 -0.98 3.66 -2 4 C-2 5.32 -2 6.64 -2 8 C-3.65 8 -5.3 8 -7 8 C-6.02133662 6.85373678 -5.04205413 5.70800212 -4.0625 4.5625 C-3.51722656 3.92441406 -2.97195313 3.28632813 -2.41015625 2.62890625 C-1.63204305 1.73008851 -0.84063472 0.84063472 0 0 Z " fill="#3592C7" transform="translate(368,286)"/>
<path d="M0 0 C-0.99 0.66 -1.98 1.32 -3 2 C-2.67 2.66 -2.34 3.32 -2 4 C-4.64 3.67 -7.28 3.34 -10 3 C-4.37755102 -1.45918367 -4.37755102 -1.45918367 0 0 Z " fill="#40131C" transform="translate(363,279)"/>
<path d="M0 0 C0.99 0.33 1.98 0.66 3 1 C-0.33333333 4.33333333 -3.66666667 7.66666667 -7 11 C-5.5140084 6.40693504 -3.14985318 3.56430755 0 0 Z " fill="#23010A" transform="translate(324,269)"/>
<path d="M0 0 C0.99 0.33 1.98 0.66 3 1 C2.625 3.4375 2.625 3.4375 2 6 C1.01 6.495 1.01 6.495 0 7 C0 6.34 0 5.68 0 5 C-0.66 5 -1.32 5 -2 5 C-1.125 1.125 -1.125 1.125 0 0 Z " fill="#DDA039" transform="translate(410,421)"/>
<path d="M0 0 C0.33 0 0.66 0 1 0 C1.2954439 5.02254631 0.98514628 7.89542386 -2 12 C-3.12377697 8.69564916 -2.89554742 6.9493138 -1.5625 3.75 C-1.27503906 3.04359375 -0.98757813 2.3371875 -0.69140625 1.609375 C-0.46324219 1.07828125 -0.23507812 0.5471875 0 0 Z " fill="#997A35" transform="translate(437,417)"/>
<path d="M0 0 C0.99 0.33 1.98 0.66 3 1 C2.34 1 1.68 1 1 1 C1 1.66 1 2.32 1 3 C-2.82320557 4.42258812 -5.91281305 5.24042276 -10 5 C-9.34 4.34 -8.68 3.68 -8 3 C-7.34 3 -6.68 3 -6 3 C-5.67 2.34 -5.34 1.68 -5 1 C-3.35 1.33 -1.7 1.66 0 2 C0 1.34 0 0.68 0 0 Z " fill="#E94771" transform="translate(362,275)"/>
<path d="M0 0 C1.32 0.33 2.64 0.66 4 1 C1.42215154 3.64752004 -0.91648098 5.94432065 -4 8 C-2.87548273 5.0280615 -1.77706209 2.66559313 0 0 Z " fill="#B36189" transform="translate(385,264)"/>
<path d="M0 0 C1.32 0 2.64 0 4 0 C3.67 1.65 3.34 3.3 3 5 C2.34 5 1.68 5 1 5 C1 5.66 1 6.32 1 7 C0.34 6.67 -0.32 6.34 -1 6 C-1.042721 4.33388095 -1.04063832 2.66617115 -1 1 C-0.67 0.67 -0.34 0.34 0 0 Z " fill="#1E628A" transform="translate(390,294)"/>
<path d="M0 0 C2.00059608 2.54621319 3.79215046 4.98037615 5 8 C4.67 8.66 4.34 9.32 4 10 C1 8 1 8 0.48828125 6.0546875 C0.32552083 4.03645833 0.16276042 2.01822917 0 0 Z " fill="#AC567A" transform="translate(336,312)"/>
<path d="M0 0 C1.32 0 2.64 0 4 0 C4 0.66 4 1.32 4 2 C4.639375 2.12375 5.27875 2.2475 5.9375 2.375 C6.618125 2.58125 7.29875 2.7875 8 3 C8.33 3.66 8.66 4.32 9 5 C6.03 4.505 6.03 4.505 3 4 C3 3.34 3 2.68 3 2 C2.01 1.67 1.02 1.34 0 1 C0 0.67 0 0.34 0 0 Z " fill="#864B38" transform="translate(380,363)"/>
<path d="M0 0 C1.98 1.65 3.96 3.3 6 5 C5.67 5.99 5.34 6.98 5 8 C3 7 3 7 1 4 C0.375 1.8125 0.375 1.8125 0 0 Z " fill="#030D1E" transform="translate(317,372)"/>
<path d="M0 0 C1.14926266 0.95421808 2.29430541 1.91352045 3.4375 2.875 C4.07558594 3.40867187 4.71367187 3.94234375 5.37109375 4.4921875 C7 6 7 6 8 8 C4.21479387 7.45925627 2.40822445 5.92427254 0 3 C0 2.01 0 1.02 0 0 Z " fill="#3A92C4" transform="translate(349,366)"/>
<path d="M0 0 C0.99 0 1.98 0 3 0 C2.690625 0.70125 2.38125 1.4025 2.0625 2.125 C0.96697322 5.08936657 0.43577008 7.87698108 0 11 C-0.33 11 -0.66 11 -1 11 C-1.14285714 3.57142857 -1.14285714 3.57142857 0 0 Z " fill="#0B0103" transform="translate(387,385)"/>
<path d="M0 0 C1.65 1.32 3.3 2.64 5 4 C4.67 4.99 4.34 5.98 4 7 C3.01 7.33 2.02 7.66 1 8 C0.67 5.36 0.34 2.72 0 0 Z " fill="#5D3C1A" transform="translate(435,371)"/>
<path d="M0 0 C2.97 0.495 2.97 0.495 6 1 C6 1.66 6 2.32 6 3 C6.99 3.33 7.98 3.66 9 4 C6.36 3.67 3.72 3.34 1 3 C0.67 2.01 0.34 1.02 0 0 Z " fill="#AF6275" transform="translate(352,331)"/>
<path d="M0 0 C0 3 0 3 -1 6 C-3.5625 7.1875 -3.5625 7.1875 -6 8 C-4.26440562 4.942048 -2.61527381 2.36620011 0 0 Z " fill="#081A30" transform="translate(381,308)"/>
<path d="M0 0 C0.99 0.33 1.98 0.66 3 1 C1.90554162 1.86657116 0.79902219 2.71792724 -0.3125 3.5625 C-0.92738281 4.03816406 -1.54226563 4.51382812 -2.17578125 5.00390625 C-2.77777344 5.33261719 -3.37976563 5.66132813 -4 6 C-4.99 5.67 -5.98 5.34 -7 5 C-4.702779 3.25728062 -2.40133271 1.60088848 0 0 Z " fill="#220209" transform="translate(333,263)"/>
<path d="M0 0 C0.625 1.875 0.625 1.875 1 4 C0.34 4.66 -0.32 5.32 -1 6 C-1.99 6 -2.98 6 -4 6 C-2.84826645 3.53199953 -1.95216435 1.95216435 0 0 Z " fill="#3F8DC5" transform="translate(397,255)"/>
<path d="M0 0 C0.99 0.33 1.98 0.66 3 1 C2.34 1 1.68 1 1 1 C1 1.66 1 2.32 1 3 C0.34 3 -0.32 3 -1 3 C-1.33 3.66 -1.66 4.32 -2 5 C-2 2 -2 2 0 0 Z " fill="#010106" transform="translate(430,436)"/>
<path d="M0 0 C0.66 0 1.32 0 2 0 C2 1.32 2 2.64 2 4 C1.34 3.67 0.68 3.34 0 3 C0 2.01 0 1.02 0 0 Z " fill="#020404" transform="translate(382,393)"/>
<path d="M0 0 C0.66 0 1.32 0 2 0 C2 0.66 2 1.32 2 2 C1.34 2 0.68 2 0 2 C0 1.34 0 0.68 0 0 Z " fill="#000408" transform="translate(433,433)"/>
<path d="M0 0 C0.66 0 1.32 0 2 0 C2 0.66 2 1.32 2 2 C1.34 2 0.68 2 0 2 C0 1.34 0 0.68 0 0 Z " fill="#060204" transform="translate(407,415)"/>
<path d="M0 0 C3 1 3 1 3 1 Z " fill="#04010B" transform="translate(395,460)"/>
<path d="M0 0 C0.66 0.66 1.32 1.32 2 2 C1.34 2 0.68 2 0 2 C0 1.34 0 0.68 0 0 Z " fill="#030207" transform="translate(363,424)"/>
<path d="M0 0 C0.66 0 1.32 0 2 0 C1.67 0.66 1.34 1.32 1 2 C0.67 1.34 0.34 0.68 0 0 Z " fill="#03020A" transform="translate(347,408)"/>
<path d="M0 0 C0.99 0.495 0.99 0.495 2 1 C1.01 1.495 1.01 1.495 0 2 C0 1.34 0 0.68 0 0 Z " fill="#050507" transform="translate(309,339)"/>
<path d="M0 0 C2 1 2 1 2 1 Z " fill="#040206" transform="translate(307,460)"/>
<path d="" fill="#000305" transform="translate(0,0)"/>
<path d="M0 0 C2 1 2 1 2 1 Z " fill="#000209" transform="translate(365,429)"/>
<path d="" fill="#000407" transform="translate(0,0)"/>
<path d="" fill="#000306" transform="translate(0,0)"/>
<path d="" fill="#01030A" transform="translate(0,0)"/>
<path d="M0 0 C2 1 2 1 2 1 Z " fill="#04010B" transform="translate(349,301)"/>
<path d="M0 0 C2 1 2 1 2 1 Z " fill="#00020B" transform="translate(354,293)"/>
<path d="M0 0 C2 1 2 1 2 1 Z " fill="#080403" transform="translate(344,292)"/>
<path d="" fill="#070203" transform="translate(0,0)"/>
<path d="M0 0 C2 1 2 1 2 1 Z " fill="#0C0000" transform="translate(311,280)"/>
<path d="" fill="#00050E" transform="translate(0,0)"/>
<path d="" fill="#000605" transform="translate(0,0)"/>
<path d="" fill="#080803" transform="translate(0,0)"/>
<path d="" fill="#020809" transform="translate(0,0)"/>
<path d="" fill="#0A0207" transform="translate(0,0)"/>
<path d="" fill="#00000A" transform="translate(0,0)"/>
<path d="" fill="#020008" transform="translate(0,0)"/>
<path d="" fill="#030405" transform="translate(0,0)"/>
<path d="" fill="#040505" transform="translate(0,0)"/>
<path d="" fill="#070306" transform="translate(0,0)"/>
<path d="" fill="#070004" transform="translate(0,0)"/>
<path d="" fill="#030406" transform="translate(0,0)"/>
<path d="" fill="#010208" transform="translate(0,0)"/>
<path d="" fill="#000507" transform="translate(0,0)"/>
<path d="" fill="#080405" transform="translate(0,0)"/>
<path d="" fill="#0B0607" transform="translate(0,0)"/>
<path d="" fill="#020806" transform="translate(0,0)"/>
<path d="" fill="#04020B" transform="translate(0,0)"/>
<path d="" fill="#0A0006" transform="translate(0,0)"/>
<path d="" fill="#0E0006" transform="translate(0,0)"/>
<path d="" fill="#0D0202" transform="translate(0,0)"/>
<path d="" fill="#04080B" transform="translate(0,0)"/>
<path d="" fill="#070306" transform="translate(0,0)"/>
<path d="" fill="#050307" transform="translate(0,0)"/>
<path d="" fill="#030607" transform="translate(0,0)"/>
<path d="" fill="#090407" transform="translate(0,0)"/>
<path d="" fill="#090204" transform="translate(0,0)"/>
<path d="" fill="#08030A" transform="translate(0,0)"/>
<path d="" fill="#000400" transform="translate(0,0)"/>
<path d="" fill="#0A0102" transform="translate(0,0)"/>
<path d="" fill="#040604" transform="translate(0,0)"/>
<path d="" fill="#0A0000" transform="translate(0,0)"/>
<path d="" fill="#050106" transform="translate(0,0)"/>
<path d="" fill="#020609" transform="translate(0,0)"/>
</svg>
